<svg width="48" height="48" viewBox="0 0 48 48" fill="none" xmlns="http://www.w3.org/2000/svg">
<g filter="url(#filter0_bdii_159_14)">
<circle cx="24" cy="20" r="16" fill="url(#paint0_linear_159_14)" shape-rendering="crispEdges"/>
</g>
<path d="M30.6663 15.9318C30.176 16.1456 29.6493 16.29 29.0955 16.3553C29.6669 16.0189 30.0944 15.4894 30.2982 14.8656C29.7614 15.1794 29.1738 15.4002 28.5612 15.5186C28.1492 15.0857 27.6035 14.7987 27.0088 14.7023C26.4141 14.6059 25.8037 14.7054 25.2723 14.9854C24.741 15.2653 24.3184 15.7101 24.0702 16.2506C23.8221 16.7911 23.7622 17.3971 23.8998 17.9745C22.8121 17.9208 21.7481 17.6426 20.7767 17.158C19.8053 16.6733 18.9483 15.9931 18.2614 15.1615C18.0265 15.5602 17.8915 16.0225 17.8915 16.5148C17.8912 16.9581 18.0021 17.3945 18.2143 17.7854C18.4266 18.1763 18.7336 18.5097 19.1082 18.7558C18.6738 18.7422 18.249 18.6267 17.8691 18.4189V18.4536C17.8691 19.0752 18.0876 19.6778 18.4876 20.1589C18.8876 20.64 19.4444 20.9702 20.0636 21.0933C19.6606 21.2006 19.2381 21.2164 18.8281 21.1395C19.0028 21.6744 19.343 22.1422 19.8013 22.4773C20.2595 22.8124 20.8128 22.9981 21.3836 23.0084C20.4146 23.757 19.2179 24.163 17.986 24.1612C17.7678 24.1613 17.5497 24.1488 17.333 24.1237C18.5835 24.9149 20.0391 25.3348 21.5257 25.3332C26.5582 25.3332 29.3093 21.2314 29.3093 17.674C29.3093 17.5585 29.3063 17.4417 29.3011 17.3262C29.8362 16.9453 30.2981 16.4737 30.6652 15.9335L30.6663 15.9318V15.9318Z" fill="black"/>
<defs>
<filter id="filter0_bdii_159_14" x="-12" y="-16" width="72" height="72" filterUnits="userSpaceOnUse" color-interpolation-filters="sRGB">
<feFlood flood-opacity="0" result="BackgroundImageFix"/>
<feGaussianBlur in="BackgroundImage" stdDeviation="10"/>
<feComposite in2="SourceAlpha" operator="in" result="effect1_backgroundBlur_159_14"/>
<feColorMatrix in="SourceAlpha" type="matrix" values="0 0 0 0 0 0 0 0 0 0 0 0 0 0 0 0 0 0 127 0" result="hardAlpha"/>
<feOffset dy="4"/>
<feGaussianBlur stdDeviation="4"/>
<feComposite in2="hardAlpha" operator="out"/>
<feColorMatrix type="matrix" values="0 0 0 0 0 0 0 0 0 0 0 0 0 0 0 0 0 0 0.08 0"/>
<feBlend mode="normal" in2="effect1_backgroundBlur_159_14" result="effect2_dropShadow_159_14"/>
<feBlend mode="normal" in="SourceGraphic" in2="effect2_dropShadow_159_14" result="shape"/>
<feColorMatrix in="SourceAlpha" type="matrix" values="0 0 0 0 0 0 0 0 0 0 0 0 0 0 0 0 0 0 127 0" result="hardAlpha"/>
<feOffset dx="5" dy="5"/>
<feGaussianBlur stdDeviation="2"/>
<feComposite in2="hardAlpha" operator="arithmetic" k2="-1" k3="1"/>
<feColorMatrix type="matrix" values="0 0 0 0 1 0 0 0 0 1 0 0 0 0 1 0 0 0 0.08 0"/>
<feBlend mode="normal" in2="shape" result="effect3_innerShadow_159_14"/>
<feColorMatrix in="SourceAlpha" type="matrix" values="0 0 0 0 0 0 0 0 0 0 0 0 0 0 0 0 0 0 127 0" result="hardAlpha"/>
<feOffset dx="-5" dy="-5"/>
<feGaussianBlur stdDeviation="2"/>
<feComposite in2="hardAlpha" operator="arithmetic" k2="-1" k3="1"/>
<feColorMatrix type="matrix" values="0 0 0 0 1 0 0 0 0 1 0 0 0 0 1 0 0 0 0.04 0"/>
<feBlend mode="normal" in2="effect3_innerShadow_159_14" result="effect4_innerShadow_159_14"/>
</filter>
<linearGradient id="paint0_linear_159_14" x1="24" y1="4" x2="24" y2="36" gradientUnits="userSpaceOnUse">
<stop stop-color="#F8CE52"/>
<stop offset="1" stop-color="white" stop-opacity="0.74"/>
</linearGradient>
</defs>
</svg>
