<svg width="624" height="944" viewBox="0 0 624 944" fill="none" xmlns="http://www.w3.org/2000/svg">
<mask id="mask0_35_6501" style="mask-type:alpha" maskUnits="userSpaceOnUse" x="0" y="0" width="624" height="944">
<path d="M0 0H624V944H0V0Z" fill="#303030"/>
</mask>
<g mask="url(#mask0_35_6501)">
<path fill-rule="evenodd" clip-rule="evenodd" d="M742.518 573.047C743.256 568.541 743.686 564.05 743.821 559.594L660.2 657.168C664.65 656.342 669.021 655.225 673.286 653.831L742.518 573.047ZM638.319 658.811L742.111 537.703C741.516 534.546 740.774 531.429 739.89 528.363L628.753 658.041C631.955 658.45 635.146 658.705 638.319 658.811ZM611.478 654.313L733.549 511.875C732.333 509.379 731.016 506.932 729.603 504.546L603.622 651.547C606.183 652.568 608.804 653.492 611.478 654.313ZM589.234 644.448L720.381 491.42C718.718 489.409 716.978 487.458 715.163 485.576L582.665 640.181C584.792 641.682 586.982 643.106 589.234 644.448ZM572.047 631.562L705.036 476.386C703.006 474.779 700.91 473.244 698.75 471.788L566.549 626.046C568.308 627.951 570.142 629.791 572.047 631.562ZM556.731 613.615L684.966 463.985C682.516 462.84 680.007 461.788 677.442 460.832L552.457 606.67C553.79 609.041 555.215 611.357 556.731 613.615ZM545.337 591.09L660.938 456.203C657.905 455.618 654.876 455.173 651.857 454.865L542.625 582.323C543.399 585.292 544.305 588.217 545.337 591.09ZM539.483 562.104L631.408 454.841C627.401 455.241 623.444 455.878 619.554 456.739L539.554 550.088C539.291 554.123 539.271 558.134 539.483 562.104ZM588.244 469.387L547.21 517.267C555.647 496.954 570.238 480.406 588.244 469.387Z" fill="#F8CE52" fill-opacity="0.1"/>
<rect opacity="0.2" x="-15.8203" y="615" width="189.334" height="255.115" rx="69" transform="rotate(33.8705 -15.8203 615)" fill="url(#paint0_linear_35_6501)"/>
<rect opacity="0.1" x="490.939" y="485.112" width="85.6382" height="352.269" rx="42.8191" transform="rotate(-144.754 490.939 485.112)" fill="url(#paint1_linear_35_6501)"/>
<path opacity="0.2" fill-rule="evenodd" clip-rule="evenodd" d="M456.773 998.672C501.429 975.5 518.845 920.513 495.672 875.857C472.5 831.201 417.514 813.785 372.857 836.958C328.201 860.13 310.785 915.117 333.958 959.773C357.131 1004.43 412.117 1021.84 456.773 998.672ZM440.057 966.461C466.923 952.52 477.401 919.438 463.46 892.572C449.518 865.706 416.437 855.228 389.571 869.169C362.705 883.11 352.227 916.192 366.168 943.058C380.109 969.924 413.19 980.402 440.057 966.461Z" fill="url(#paint2_linear_35_6501)"/>
</g>
<defs>
<linearGradient id="paint0_linear_35_6501" x1="-54.5907" y1="788.034" x2="191.852" y2="776.662" gradientUnits="userSpaceOnUse">
<stop stop-color="#FF0000" stop-opacity="0.16"/>
<stop offset="1" stop-color="#F8CE52" stop-opacity="0.35"/>
</linearGradient>
<linearGradient id="paint1_linear_35_6501" x1="473.403" y1="724.041" x2="580.663" y2="723.642" gradientUnits="userSpaceOnUse">
<stop stop-color="#F7B800"/>
<stop offset="1" stop-color="#7B7B7B" stop-opacity="0.17"/>
</linearGradient>
<linearGradient id="paint2_linear_35_6501" x1="292" y1="878.916" x2="456.773" y2="998.672" gradientUnits="userSpaceOnUse">
<stop stop-color="#F8CE52"/>
<stop offset="1" stop-color="#EF00D7" stop-opacity="0"/>
</linearGradient>
</defs>
</svg>
