<svg width="1440" height="1588" viewBox="0 0 1440 1588" fill="none" xmlns="http://www.w3.org/2000/svg">
<g opacity="0.4">
<path d="M-272.122 614.472C-203.953 584.917 -174.397 640.214 -119.576 640.214C-64.7552 640.214 -48.0706 614.472 -6.12054 614.472C15.1049 614.472 105.477 687.758 214.594 705.046C373.336 614.472 446.304 682.948 480.595 672.63C588.33 640.214 597.864 403.292 597.864 243.119H614.072C614.072 416.163 651.732 692.175 814.765 672.63C922.549 659.709 896.758 640.214 958.253 640.214C1019.75 640.214 1056.45 672.63 1131.3 672.63C1206.14 672.63 1252.38 614.472 1343.43 614.472L1345.62 614.472C1436.12 614.468 1537.71 614.464 1570.34 672.63V974.384H-272.122V614.472Z" fill="url(#paint0_linear_35_8986)" fill-opacity="0.1"/>
<path d="M-156.583 670.643C-202.189 642.783 -49.4521 508.978 -9.86955 548.115C39.6086 597.036 42.6203 780.155 148.03 710.139C253.44 640.123 267.638 596.588 308.942 608.706C350.245 620.824 403.166 710.139 458.667 710.139C514.169 710.139 745.64 554.398 786.514 572.8C827.387 591.202 912.145 689.044 973.67 670.643C1035.2 652.241 1079.51 527.02 1149.64 572.8C1205.74 609.424 1430.59 679.619 1536 710.139V1588H-140.476L-156.583 670.643Z" fill="#494A53"/>
<path d="M606.506 54.3438L738.614 283.162L671.607 214.517L606.506 283.162L539.499 214.517L474.398 283.162L606.506 54.3438Z" fill="#44444D"/>
<path d="M606.506 54.3438L738.614 283.162L671.607 214.517L606.506 283.162L606.506 54.3438Z" fill="#1B1919"/>
<path d="M1293.85 395.665L1299.95 414.441H1319.7L1303.72 426.044L1309.82 444.82L1293.85 433.216L1277.88 444.82L1283.98 426.044L1268.01 414.441H1287.75L1293.85 395.665Z" fill="#B9BBD0"/>
<path d="M315.655 368.97L321.755 387.745H341.497L325.526 399.349L331.626 418.125L315.655 406.521L299.683 418.125L305.784 399.349L289.813 387.745H309.554L315.655 368.97Z" fill="#B9BBD0"/>
<path d="M1435.43 114.409L1437.58 120.997H1444.5L1438.9 125.068L1441.04 131.656L1435.43 127.584L1429.83 131.656L1431.97 125.068L1426.37 120.997H1433.29L1435.43 114.409Z" fill="#B9BBD0"/>
<path d="M219.838 224.052L221.978 230.64H228.905L223.301 234.711L225.442 241.299L219.838 237.228L214.234 241.299L216.374 234.711L210.77 230.64H217.697L219.838 224.052Z" fill="#B9BBD0"/>
<path d="M979.705 450.009L981.845 456.597H988.772L983.168 460.669L985.309 467.257L979.705 463.185L974.101 467.257L976.241 460.669L970.637 456.597H977.564L979.705 450.009Z" fill="#B9BBD0"/>
<path d="M1220.92 185.915L1223.06 192.503H1229.99L1224.38 196.574L1226.52 203.162L1220.92 199.091L1215.31 203.162L1217.45 196.574L1211.85 192.503H1218.78L1220.92 185.915Z" fill="#B9BBD0"/>
<path d="M1046.44 9.53369L1048.58 16.1216H1055.51L1049.91 20.1931L1052.05 26.781L1046.44 22.7095L1040.84 26.781L1042.98 20.1931L1037.38 16.1216H1044.3L1046.44 9.53369Z" fill="#B9BBD0"/>
<path d="M397.172 72.4595L398.242 75.7534H401.706L398.904 77.7892L399.974 81.0831L397.172 79.0474L394.37 81.0831L395.44 77.7892L392.638 75.7534H396.102L397.172 72.4595Z" fill="#B9BBD0"/>
<path d="M852.901 331.786L853.972 335.08H857.435L854.633 337.116L855.703 340.41L852.901 338.374L850.099 340.41L851.17 337.116L848.368 335.08H851.831L852.901 331.786Z" fill="#B9BBD0"/>
<path d="M934.895 104.875L935.965 108.169H939.429L936.627 110.205L937.697 113.499L934.895 111.463L932.093 113.499L933.163 110.205L930.361 108.169H933.825L934.895 104.875Z" fill="#B9BBD0"/>
<path d="M77.7794 450.009L78.8497 453.303H82.3132L79.5112 455.339L80.5814 458.633L77.7794 456.597L74.9774 458.633L76.0477 455.339L73.2457 453.303H76.7092L77.7794 450.009Z" fill="#B9BBD0"/>
<path fill-rule="evenodd" clip-rule="evenodd" d="M1140.89 48.0635C1154.47 56.8448 1171.75 63.6209 1173.41 84.5108C1175.03 104.952 1157.15 128.093 1149.05 150.76C1141.69 171.337 1141.6 193.804 1128.14 211.055C1114.4 228.671 1095.97 233.901 1079.1 240.413C1061.72 247.124 1044.65 252.315 1029.48 249.136C1011.47 245.361 987.8 243.552 985.291 220.747C982.747 197.634 1009.63 171.777 1018.09 145.634C1026.27 120.379 1018.44 94.603 1033.45 72.0406C1048.84 48.9004 1072.85 37.2155 1093.24 32.6667C1112.41 28.3889 1126.66 38.8595 1140.89 48.0635Z" fill="#E9EAF0" fill-opacity="0.1"/>
<path fill-rule="evenodd" clip-rule="evenodd" d="M234.4 70.3895C236.117 54.3093 234.377 35.8317 252.276 24.9344C269.791 14.271 298.506 19.7972 322.395 16.8172C344.08 14.1121 364.173 4.06085 385.639 8.29813C407.56 12.6251 420.533 26.7131 433.951 38.8376C447.779 51.3322 460.107 64.2283 464.106 79.1982C468.853 96.9741 477.91 118.923 458.685 131.443C439.2 144.132 404.002 131.793 376.849 136.021C350.62 140.105 331.142 158.717 304.237 155.491C276.643 152.183 255.388 136.015 242.138 119.87C229.679 104.687 232.6 87.2435 234.4 70.3895Z" fill="#E9EAF0" fill-opacity="0.1"/>
<path fill-rule="evenodd" clip-rule="evenodd" d="M1506.17 371.313C1513.44 375.774 1522.35 379.756 1524.81 387.934C1527.22 395.937 1520.4 403.43 1518.27 411.518C1516.34 418.859 1518.08 427.506 1512.93 433.082C1507.67 438.777 1499.16 439.328 1491.5 440.497C1483.61 441.701 1475.75 442.346 1468.15 439.917C1459.13 437.033 1447.52 434.457 1444.49 425.473C1441.42 416.369 1452.39 408.544 1454.42 399.146C1456.38 390.068 1450.53 379.517 1456.01 372.018C1461.63 364.327 1472.34 361.733 1481.85 361.599C1490.8 361.473 1498.54 366.638 1506.17 371.313Z" fill="#E9EAF0" fill-opacity="0.1"/>
</g>
<defs>
<linearGradient id="paint0_linear_35_8986" x1="649.11" y1="338.46" x2="649.11" y2="669.293" gradientUnits="userSpaceOnUse">
<stop stop-color="#F6F6F9"/>
<stop offset="1" stop-color="#9A9DBB"/>
</linearGradient>
</defs>
</svg>
