<svg width="80" height="80" viewBox="0 0 80 80" fill="none" xmlns="http://www.w3.org/2000/svg">
<circle cx="40" cy="40" r="40" fill="url(#paint0_linear_84_17691)" fill-opacity="0.66"/>
<path fill-rule="evenodd" clip-rule="evenodd" d="M51.4283 31.4285L46.6664 36.1904L39.9998 29.5238L33.3331 36.1905L28.5712 31.4286L35.2379 24.7619L39.9997 20.0001L39.9998 20L51.4283 31.4285ZM55.2376 44.7617L59.9995 39.9998L55.2376 35.238L50.4757 39.9999L55.2376 44.7617ZM29.5238 40.0002L24.7619 44.7621L20 40.0002L24.7619 35.2383L29.5238 40.0002ZM39.9995 44.7621L44.7614 40.0002L39.9995 35.2383L35.2376 40.0002L39.9995 44.7621ZM39.9996 60L35.2377 55.2381L28.5712 48.5716L33.3331 43.8097L39.9996 50.4762L47.1424 43.3334L51.9043 48.0952L44.7614 55.2381L44.7615 55.2382L39.9996 60.0001L39.9996 60Z" fill="#F9F9F9"/>
<defs>
<linearGradient id="paint0_linear_84_17691" x1="40" y1="-7.45058e-07" x2="15" y2="75.5" gradientUnits="userSpaceOnUse">
<stop stop-color="#FFC350"/>
<stop offset="1" stop-color="#FF6F50"/>
</linearGradient>
</defs>
</svg>
