<svg width="48" height="48" viewBox="0 0 48 48" fill="none" xmlns="http://www.w3.org/2000/svg">
<g filter="url(#filter0_bdii_9_6198)">
<circle cx="24" cy="20" r="16" fill="url(#paint0_linear_9_6198)" shape-rendering="crispEdges"/>
</g>
<path d="M24 28C28.4183 28 32 24.4183 32 20C32 15.5817 28.4183 12 24 12C19.5817 12 16 15.5817 16 20C16 24.4183 19.5817 28 24 28Z" fill="black"/>
<path d="M29.3352 19.9998C29.3114 19.3555 28.7705 18.8524 28.1242 18.8743C27.8378 18.8842 27.5654 19.0016 27.3586 19.1984C26.4478 18.578 25.378 18.238 24.2783 18.2141L24.7973 15.7184L26.5095 16.0784C26.5572 16.5178 26.9509 16.836 27.3904 16.7883C27.8299 16.7406 28.1481 16.3468 28.1003 15.9074C28.0526 15.4679 27.6589 15.1497 27.2194 15.1974C26.9668 15.2233 26.7401 15.3704 26.6149 15.5892L24.6541 15.1974C24.5209 15.1676 24.3877 15.2511 24.3578 15.3864C24.3578 15.3883 24.3578 15.3883 24.3578 15.3903L23.7672 18.1664C22.6536 18.1843 21.5699 18.5263 20.6472 19.1507C20.1779 18.7092 19.4381 18.7311 18.9967 19.2024C18.5552 19.6717 18.5771 20.4115 19.0484 20.8529C19.1399 20.9384 19.2452 21.012 19.3626 21.0637C19.3546 21.181 19.3546 21.2984 19.3626 21.4157C19.3626 23.2074 21.4506 24.665 24.0258 24.665C26.6009 24.665 28.6889 23.2094 28.6889 21.4157C28.6969 21.2984 28.6969 21.181 28.6889 21.0637C29.0906 20.8629 29.3432 20.4492 29.3352 19.9998ZM21.3352 20.8012C21.3352 20.3598 21.6952 19.9998 22.1366 19.9998C22.5781 19.9998 22.938 20.3598 22.938 20.8012C22.938 21.2427 22.5781 21.6026 22.1366 21.6026C21.6932 21.5986 21.3352 21.2427 21.3352 20.8012ZM25.9825 23.0006C25.4138 23.4281 24.7178 23.6469 24.0059 23.617C23.294 23.6469 22.598 23.4281 22.0292 23.0006C21.9537 22.9091 21.9676 22.7719 22.0591 22.6963C22.1386 22.6307 22.252 22.6307 22.3335 22.6963C22.8147 23.0483 23.4013 23.2273 23.9979 23.1994C24.5945 23.2312 25.1831 23.0602 25.6703 22.7122C25.7578 22.6267 25.901 22.6287 25.9865 22.7162C26.072 22.8037 26.07 22.9469 25.9825 23.0324V23.0006ZM25.8393 21.6305C25.3979 21.6305 25.0379 21.2705 25.0379 20.8291C25.0379 20.3876 25.3979 20.0277 25.8393 20.0277C26.2808 20.0277 26.6407 20.3876 26.6407 20.8291C26.6586 21.2705 26.3146 21.6424 25.8731 21.6603C25.8592 21.6603 25.8473 21.6603 25.8334 21.6603L25.8393 21.6305Z" fill="white"/>
<defs>
<filter id="filter0_bdii_9_6198" x="-12" y="-16" width="72" height="72" filterUnits="userSpaceOnUse" color-interpolation-filters="sRGB">
<feFlood flood-opacity="0" result="BackgroundImageFix"/>
<feGaussianBlur in="BackgroundImage" stdDeviation="10"/>
<feComposite in2="SourceAlpha" operator="in" result="effect1_backgroundBlur_9_6198"/>
<feColorMatrix in="SourceAlpha" type="matrix" values="0 0 0 0 0 0 0 0 0 0 0 0 0 0 0 0 0 0 127 0" result="hardAlpha"/>
<feOffset dy="4"/>
<feGaussianBlur stdDeviation="4"/>
<feComposite in2="hardAlpha" operator="out"/>
<feColorMatrix type="matrix" values="0 0 0 0 0 0 0 0 0 0 0 0 0 0 0 0 0 0 0.08 0"/>
<feBlend mode="normal" in2="effect1_backgroundBlur_9_6198" result="effect2_dropShadow_9_6198"/>
<feBlend mode="normal" in="SourceGraphic" in2="effect2_dropShadow_9_6198" result="shape"/>
<feColorMatrix in="SourceAlpha" type="matrix" values="0 0 0 0 0 0 0 0 0 0 0 0 0 0 0 0 0 0 127 0" result="hardAlpha"/>
<feOffset dx="5" dy="5"/>
<feGaussianBlur stdDeviation="2"/>
<feComposite in2="hardAlpha" operator="arithmetic" k2="-1" k3="1"/>
<feColorMatrix type="matrix" values="0 0 0 0 1 0 0 0 0 1 0 0 0 0 1 0 0 0 0.08 0"/>
<feBlend mode="normal" in2="shape" result="effect3_innerShadow_9_6198"/>
<feColorMatrix in="SourceAlpha" type="matrix" values="0 0 0 0 0 0 0 0 0 0 0 0 0 0 0 0 0 0 127 0" result="hardAlpha"/>
<feOffset dx="-5" dy="-5"/>
<feGaussianBlur stdDeviation="2"/>
<feComposite in2="hardAlpha" operator="arithmetic" k2="-1" k3="1"/>
<feColorMatrix type="matrix" values="0 0 0 0 1 0 0 0 0 1 0 0 0 0 1 0 0 0 0.04 0"/>
<feBlend mode="normal" in2="effect3_innerShadow_9_6198" result="effect4_innerShadow_9_6198"/>
</filter>
<linearGradient id="paint0_linear_9_6198" x1="24" y1="4" x2="24" y2="36" gradientUnits="userSpaceOnUse">
<stop stop-color="#F8CE52"/>
<stop offset="1" stop-color="white" stop-opacity="0.74"/>
</linearGradient>
</defs>
</svg>
