<svg width="1440" height="1384" viewBox="0 0 1440 1384" fill="none" xmlns="http://www.w3.org/2000/svg">
<mask id="mask0_35_6509" style="mask-type:alpha" maskUnits="userSpaceOnUse" x="0" y="0" width="1440" height="1384">
<path d="M0 0H1440V1384H0V0Z" fill="#303030"/>
</mask>
<g mask="url(#mask0_35_6509)">
<path fill-rule="evenodd" clip-rule="evenodd" d="M1713.5 528.417C1715.21 518.019 1716.2 507.653 1716.51 497.371L1523.54 722.541C1533.81 720.636 1543.9 718.057 1553.74 714.841L1713.5 528.417ZM1473.04 726.333L1712.56 446.852C1711.19 439.567 1709.48 432.374 1707.44 425.299L1450.97 724.556C1458.36 725.5 1465.72 726.089 1473.04 726.333ZM1411.1 715.953L1692.81 387.249C1690 381.489 1686.96 375.844 1683.7 370.337L1392.97 709.569C1398.88 711.925 1404.93 714.058 1411.1 715.953ZM1359.77 693.188L1662.42 340.047C1658.58 335.406 1654.57 330.904 1650.38 326.559L1344.61 683.341C1349.52 686.805 1354.57 690.091 1359.77 693.188ZM1320.11 663.45L1627.01 305.352C1622.32 301.644 1617.49 298.102 1612.5 294.741L1307.42 650.721C1311.48 655.117 1315.71 659.364 1320.11 663.45ZM1284.76 622.034L1580.69 276.734C1575.04 274.093 1569.25 271.664 1563.33 269.458L1274.9 606.009C1277.98 611.48 1281.26 616.825 1284.76 622.034ZM1258.47 570.055L1525.24 258.776C1518.24 257.426 1511.25 256.4 1504.29 255.689L1252.21 549.822C1254 556.673 1256.09 563.424 1258.47 570.055ZM1244.96 503.162L1457.09 255.634C1447.85 256.557 1438.72 258.025 1429.74 260.014L1245.12 475.433C1244.52 484.746 1244.47 494.003 1244.96 503.162ZM1357.49 289.2L1262.79 399.693C1282.26 352.816 1315.93 314.63 1357.49 289.2Z" fill="#F8CE52" fill-opacity="0.1"/>
<rect opacity="0.2" x="-36.5084" y="625.231" width="436.926" height="588.727" rx="69" transform="rotate(33.8705 -36.5084 625.231)" fill="url(#paint0_linear_35_6509)"/>
<rect opacity="0.1" x="1132.94" y="325.49" width="197.627" height="812.929" rx="68" transform="rotate(-144.754 1132.94 325.49)" fill="url(#paint1_linear_35_6509)"/>
<path opacity="0.2" fill-rule="evenodd" clip-rule="evenodd" d="M1054.09 1510.63C1157.14 1457.15 1197.34 1330.26 1143.86 1227.21C1090.38 1124.16 963.493 1083.97 860.44 1137.44C757.387 1190.92 717.197 1317.81 770.672 1420.86C824.147 1523.91 951.039 1564.1 1054.09 1510.63ZM1015.52 1436.29C1077.51 1404.12 1101.69 1327.78 1069.52 1265.78C1037.35 1203.78 961.009 1179.6 899.01 1211.77C837.01 1243.95 812.831 1320.29 845.003 1382.29C877.175 1444.29 953.516 1468.47 1015.52 1436.29Z" fill="url(#paint2_linear_35_6509)"/>
</g>
<defs>
<linearGradient id="paint0_linear_35_6509" x1="-125.979" y1="1024.54" x2="442.735" y2="998.297" gradientUnits="userSpaceOnUse">
<stop stop-color="#FF0000" stop-opacity="0.16"/>
<stop offset="1" stop-color="#F8CE52" stop-opacity="0.35"/>
</linearGradient>
<linearGradient id="paint1_linear_35_6509" x1="1092.47" y1="876.864" x2="1339.99" y2="875.942" gradientUnits="userSpaceOnUse">
<stop stop-color="#F7B800"/>
<stop offset="1" stop-color="#7B7B7B" stop-opacity="0.17"/>
</linearGradient>
<linearGradient id="paint2_linear_35_6509" x1="673.846" y1="1234.27" x2="1054.09" y2="1510.63" gradientUnits="userSpaceOnUse">
<stop stop-color="#F8CE52"/>
<stop offset="1" stop-color="#EF00D7" stop-opacity="0"/>
</linearGradient>
</defs>
</svg>
