<svg width="48" height="48" viewBox="0 0 48 48" fill="none" xmlns="http://www.w3.org/2000/svg">
<g filter="url(#filter0_bdii_9_6189)">
<circle cx="24" cy="20" r="16" fill="url(#paint0_linear_9_6189)" shape-rendering="crispEdges"/>
</g>
<path fill-rule="evenodd" clip-rule="evenodd" d="M29.8217 14.1737C30.1742 14.5255 30.4492 14.9469 30.6292 15.411C30.8367 15.9615 30.9474 16.5437 30.9565 17.1318C31 17.8747 31 18.1153 31 20.0115V20.0116C31 21.908 30.9899 22.1447 30.9565 22.8914C30.9448 23.4721 30.8352 24.0449 30.6307 24.5883C30.4505 25.0523 30.1754 25.4736 29.8229 25.8255C29.4705 26.1774 29.0485 26.4521 28.5837 26.6321C28.0397 26.8355 27.4651 26.9455 26.8843 26.9573C26.1418 27 25.8985 27 24 27C22.1015 27 21.8644 26.9899 21.1157 26.9573C20.5337 26.9382 19.9592 26.8201 19.417 26.608C18.9522 26.4284 18.53 26.1539 18.1774 25.8021C17.8248 25.4503 17.5495 25.029 17.3693 24.565C17.1648 24.0208 17.0552 23.448 17.0435 22.8674C17 22.1245 17 21.8831 17 19.9876C17 18.0913 17.0101 17.8545 17.0435 17.1078C17.0549 16.5278 17.1651 15.954 17.3693 15.411C17.549 14.9468 17.824 14.5253 18.1765 14.1734C18.529 13.8216 18.9513 13.5472 19.4163 13.3679C19.9595 13.1635 20.5337 13.0532 21.1142 13.0419C21.8566 13 22.1 13 23.9984 13C25.8969 13 26.1341 13.0093 26.8827 13.0419C27.4636 13.0538 28.0382 13.1641 28.5822 13.3679C29.047 13.5474 29.4692 13.8219 29.8217 14.1737ZM29.4405 24.1202C29.5955 23.7005 29.6772 23.2573 29.6823 22.8099V22.8107H29.6908C29.7242 22.0687 29.7242 21.8653 29.7242 19.9746V19.9744C29.7242 18.0827 29.7157 17.8755 29.6823 17.1373C29.675 16.695 29.5933 16.257 29.4405 15.8418C29.3236 15.5399 29.1449 15.2657 28.9157 15.0368C28.6865 14.808 28.4119 14.6295 28.1095 14.5129C27.6939 14.3584 27.2547 14.2768 26.8112 14.2715C26.0594 14.2288 25.8651 14.2288 23.9705 14.2288C22.0759 14.2288 21.8683 14.2381 21.1289 14.2715C20.6858 14.2776 20.247 14.3593 19.8314 14.5129C19.218 14.7473 18.7321 15.2293 18.495 15.8418C18.34 16.2612 18.2582 16.7042 18.2532 17.1513C18.212 17.9034 18.212 18.0967 18.212 19.9884C18.212 21.8792 18.2198 22.0873 18.2532 22.8247C18.2605 23.267 18.3422 23.705 18.495 24.1202C18.6123 24.4226 18.7918 24.6971 19.022 24.9259C19.2522 25.1547 19.528 25.3327 19.8314 25.4483C20.2468 25.6026 20.6858 25.6843 21.1289 25.6897C21.8815 25.7324 22.0751 25.7324 23.9705 25.7324C25.8643 25.7324 26.0726 25.7239 26.8112 25.6897C27.2546 25.684 27.6938 25.6024 28.1095 25.4483C28.4119 25.3319 28.6865 25.1536 28.9158 24.9249C29.145 24.6962 29.3237 24.4221 29.4405 24.1202ZM27.7317 17.0985C28.1946 17.0985 28.5698 16.7238 28.5698 16.2617C28.5698 15.7996 28.1946 15.4249 27.7317 15.4249C27.2688 15.4249 26.8936 15.7996 26.8936 16.2617C26.8936 16.7238 27.2688 17.0985 27.7317 17.0985ZM23.9946 16.3937C23.0412 16.3937 22.1268 16.7718 21.4526 17.445C20.7785 18.1181 20.3997 19.031 20.3997 19.983C20.3997 20.9349 20.7785 21.8478 21.4526 22.521C22.1268 23.1941 23.0412 23.5722 23.9946 23.5722C24.948 23.5722 25.8624 23.1941 26.5365 22.521C27.2107 21.8478 27.5894 20.9349 27.5894 19.983C27.5894 19.031 27.2107 18.1181 26.5365 17.445C25.8624 16.7718 24.948 16.3937 23.9946 16.3937ZM23.9946 22.314C23.3752 22.314 22.7812 22.0683 22.3432 21.631C21.9052 21.1937 21.6592 20.6006 21.6592 19.9822C21.6592 19.3638 21.9052 18.7707 22.3432 18.3334C22.7812 17.8961 23.3752 17.6504 23.9946 17.6504C24.614 17.6504 25.208 17.8961 25.646 18.3334C26.0839 18.7707 26.33 19.3638 26.33 19.9822C26.33 20.6006 26.0839 21.1937 25.646 21.631C25.208 22.0683 24.614 22.314 23.9946 22.314Z" fill="black"/>
<defs>
<filter id="filter0_bdii_9_6189" x="-12" y="-16" width="72" height="72" filterUnits="userSpaceOnUse" color-interpolation-filters="sRGB">
<feFlood flood-opacity="0" result="BackgroundImageFix"/>
<feGaussianBlur in="BackgroundImage" stdDeviation="10"/>
<feComposite in2="SourceAlpha" operator="in" result="effect1_backgroundBlur_9_6189"/>
<feColorMatrix in="SourceAlpha" type="matrix" values="0 0 0 0 0 0 0 0 0 0 0 0 0 0 0 0 0 0 127 0" result="hardAlpha"/>
<feOffset dy="4"/>
<feGaussianBlur stdDeviation="4"/>
<feComposite in2="hardAlpha" operator="out"/>
<feColorMatrix type="matrix" values="0 0 0 0 0 0 0 0 0 0 0 0 0 0 0 0 0 0 0.08 0"/>
<feBlend mode="normal" in2="effect1_backgroundBlur_9_6189" result="effect2_dropShadow_9_6189"/>
<feBlend mode="normal" in="SourceGraphic" in2="effect2_dropShadow_9_6189" result="shape"/>
<feColorMatrix in="SourceAlpha" type="matrix" values="0 0 0 0 0 0 0 0 0 0 0 0 0 0 0 0 0 0 127 0" result="hardAlpha"/>
<feOffset dx="5" dy="5"/>
<feGaussianBlur stdDeviation="2"/>
<feComposite in2="hardAlpha" operator="arithmetic" k2="-1" k3="1"/>
<feColorMatrix type="matrix" values="0 0 0 0 1 0 0 0 0 1 0 0 0 0 1 0 0 0 0.08 0"/>
<feBlend mode="normal" in2="shape" result="effect3_innerShadow_9_6189"/>
<feColorMatrix in="SourceAlpha" type="matrix" values="0 0 0 0 0 0 0 0 0 0 0 0 0 0 0 0 0 0 127 0" result="hardAlpha"/>
<feOffset dx="-5" dy="-5"/>
<feGaussianBlur stdDeviation="2"/>
<feComposite in2="hardAlpha" operator="arithmetic" k2="-1" k3="1"/>
<feColorMatrix type="matrix" values="0 0 0 0 1 0 0 0 0 1 0 0 0 0 1 0 0 0 0.04 0"/>
<feBlend mode="normal" in2="effect3_innerShadow_9_6189" result="effect4_innerShadow_9_6189"/>
</filter>
<linearGradient id="paint0_linear_9_6189" x1="24" y1="4" x2="24" y2="36" gradientUnits="userSpaceOnUse">
<stop stop-color="#F8CE52"/>
<stop offset="1" stop-color="white" stop-opacity="0.74"/>
</linearGradient>
</defs>
</svg>
