<svg width="48" height="48" viewBox="0 0 48 48" fill="none" xmlns="http://www.w3.org/2000/svg">
<g filter="url(#filter0_bdii_9_6192)">
<circle cx="24" cy="20" r="16" fill="url(#paint0_linear_9_6192)" shape-rendering="crispEdges"/>
</g>
<path fill-rule="evenodd" clip-rule="evenodd" d="M16 14.5C16 13.1193 17.1193 12 18.5 12H29.5C30.8807 12 32 13.1193 32 14.5V25.5C32 26.8807 30.8807 28 29.5 28H18.5C17.1193 28 16 26.8807 16 25.5V14.5ZM20.1 18.65V24H21.8V18.65H20.1ZM20 16.95C20 17.5 20.4 17.9 20.95 17.9C21.5 17.9 21.9 17.5 21.9 16.95C21.9 16.4 21.5 16 20.95 16C20.45 16 20 16.4 20 16.95ZM26.3 24H27.9V20.7C27.9 19.05 26.9 18.5 25.95 18.5C25.1 18.5 24.5 19.05 24.35 19.4V18.65H22.75V24H24.45V21.15C24.45 20.4 24.95 20 25.45 20C25.95 20 26.3 20.25 26.3 21.1V24Z" fill="black"/>
<defs>
<filter id="filter0_bdii_9_6192" x="-12" y="-16" width="72" height="72" filterUnits="userSpaceOnUse" color-interpolation-filters="sRGB">
<feFlood flood-opacity="0" result="BackgroundImageFix"/>
<feGaussianBlur in="BackgroundImage" stdDeviation="10"/>
<feComposite in2="SourceAlpha" operator="in" result="effect1_backgroundBlur_9_6192"/>
<feColorMatrix in="SourceAlpha" type="matrix" values="0 0 0 0 0 0 0 0 0 0 0 0 0 0 0 0 0 0 127 0" result="hardAlpha"/>
<feOffset dy="4"/>
<feGaussianBlur stdDeviation="4"/>
<feComposite in2="hardAlpha" operator="out"/>
<feColorMatrix type="matrix" values="0 0 0 0 0 0 0 0 0 0 0 0 0 0 0 0 0 0 0.08 0"/>
<feBlend mode="normal" in2="effect1_backgroundBlur_9_6192" result="effect2_dropShadow_9_6192"/>
<feBlend mode="normal" in="SourceGraphic" in2="effect2_dropShadow_9_6192" result="shape"/>
<feColorMatrix in="SourceAlpha" type="matrix" values="0 0 0 0 0 0 0 0 0 0 0 0 0 0 0 0 0 0 127 0" result="hardAlpha"/>
<feOffset dx="5" dy="5"/>
<feGaussianBlur stdDeviation="2"/>
<feComposite in2="hardAlpha" operator="arithmetic" k2="-1" k3="1"/>
<feColorMatrix type="matrix" values="0 0 0 0 1 0 0 0 0 1 0 0 0 0 1 0 0 0 0.08 0"/>
<feBlend mode="normal" in2="shape" result="effect3_innerShadow_9_6192"/>
<feColorMatrix in="SourceAlpha" type="matrix" values="0 0 0 0 0 0 0 0 0 0 0 0 0 0 0 0 0 0 127 0" result="hardAlpha"/>
<feOffset dx="-5" dy="-5"/>
<feGaussianBlur stdDeviation="2"/>
<feComposite in2="hardAlpha" operator="arithmetic" k2="-1" k3="1"/>
<feColorMatrix type="matrix" values="0 0 0 0 1 0 0 0 0 1 0 0 0 0 1 0 0 0 0.04 0"/>
<feBlend mode="normal" in2="effect3_innerShadow_9_6192" result="effect4_innerShadow_9_6192"/>
</filter>
<linearGradient id="paint0_linear_9_6192" x1="24" y1="4" x2="24" y2="36" gradientUnits="userSpaceOnUse">
<stop stop-color="#F8CE52"/>
<stop offset="1" stop-color="white" stop-opacity="0.74"/>
</linearGradient>
</defs>
</svg>
