<svg width="32" height="32" viewBox="0 0 32 32" fill="none" xmlns="http://www.w3.org/2000/svg">
<path d="M0 16C0 24.8366 7.16344 32 16 32C24.8366 32 32 24.8366 32 16C32 7.16344 24.8366 0 16 0C7.16344 0 0 7.16344 0 16Z" fill="white"/>
<path d="M9.9 12.1996C9.9 11.9996 9.8 11.7996 9.7 11.6996L8.2 9.89961V9.59961H12.8L16.4 17.4996L19.6 9.59961H24V9.89961L22.7 11.0996C22.6 11.1996 22.5 11.2996 22.6 11.4996V20.4996C22.6 20.5996 22.6 20.7996 22.7 20.8996L23.9 22.0996V22.3996H17.6V22.0996L18.9 20.7996C19 20.6996 19 20.5996 19 20.3996V13.0996L15.4 22.1996H15L10.8 13.0996V19.1996C10.8 19.4996 10.9 19.6996 11 19.8996L12.7 21.8996V22.1996H8V21.8996L9.7 19.8996C9.9 19.6996 10 19.4996 9.9 19.1996V12.1996Z" fill="black"/>
</svg>
