<svg width="553" height="552" viewBox="0 0 553 552" fill="none" xmlns="http://www.w3.org/2000/svg">
<path d="M276.001 0C232.445 0 189.508 10.3084 150.699 30.0822C111.891 49.8561 78.3131 78.5341 52.7117 113.771L142.027 178.663C157.388 157.521 177.535 140.314 200.82 128.45C224.105 116.585 249.867 110.4 276.001 110.4V0Z" fill="#DDB798"/>
<path d="M52.711 113.771C35.6874 137.202 22.4579 163.167 13.5081 190.712L118.505 224.827C123.875 208.3 131.812 192.722 142.027 178.663L52.711 113.771Z" fill="#F6E5CF"/>
<path d="M13.5084 190.712C-4.50281 246.145 -4.50281 305.857 13.5084 361.29C31.5197 416.722 66.6174 465.03 113.771 499.29L178.663 409.974C150.371 389.419 129.312 360.434 118.505 327.174C107.699 293.914 107.699 258.087 118.505 224.827L13.5084 190.712Z" fill="#FEAE16"/>
<path d="M113.772 499.288C160.926 533.548 217.715 552 276.001 552V441.599C241.029 441.599 206.956 430.528 178.663 409.973L113.772 499.288Z" fill="#EF792B"/>
<path d="M276 552C319.556 552 362.493 541.692 401.302 521.918C440.11 502.144 473.688 473.466 499.289 438.229L409.974 373.337C394.613 394.479 374.466 411.686 351.181 423.55C327.896 435.415 302.134 441.6 276 441.6V552Z" fill="#FFCA64"/>
<path d="M499.29 438.229C533.549 391.075 552.001 334.286 552.001 276H441.601C441.601 310.971 430.53 345.045 409.974 373.337L499.29 438.229Z" fill="#854220"/>
<path d="M552.001 276C552.001 239.756 544.862 203.866 530.991 170.38C517.121 136.894 496.791 106.468 471.162 80.8387C445.533 55.2096 415.107 34.8796 381.621 21.0093C348.135 7.13896 312.245 0 276 0L276 110.4C297.747 110.4 319.281 114.684 339.373 123.006C359.464 131.328 377.72 143.526 393.097 158.903C408.475 174.281 420.673 192.536 428.995 212.628C437.317 232.72 441.601 254.254 441.601 276H552.001Z" fill="#BD772F"/>
<path d="M157.876 74.6748H163.536V88.6548H160.536V77.3348H157.876V74.6748ZM175.442 74.6748V77.3748H169.922V79.7148C170.335 79.5948 170.809 79.5348 171.342 79.5348C172.689 79.5348 173.849 79.9415 174.822 80.7548C175.795 81.5681 176.282 82.6681 176.282 84.0548C176.282 85.4281 175.775 86.5681 174.762 87.4748C173.762 88.3681 172.522 88.8148 171.042 88.8148C169.149 88.8148 167.569 88.1148 166.302 86.7148L167.942 84.4348C168.062 84.5548 168.222 84.7015 168.422 84.8748C168.622 85.0481 168.989 85.2815 169.522 85.5748C170.055 85.8548 170.589 85.9948 171.122 85.9948C171.655 85.9948 172.129 85.8348 172.542 85.5148C172.955 85.1948 173.162 84.7215 173.162 84.0948C173.162 83.4681 172.935 82.9881 172.482 82.6548C172.042 82.3081 171.469 82.1348 170.762 82.1348C170.055 82.1348 169.235 82.3881 168.302 82.8948L167.002 81.4948V74.6748H175.442ZM192.096 74.6748L182.076 88.6548H178.636L188.676 74.6748H192.096ZM188.736 86.7348C188.896 86.9081 189.096 86.9948 189.336 86.9948C189.576 86.9948 189.776 86.9081 189.936 86.7348C190.096 86.5481 190.176 86.3081 190.176 86.0148C190.176 85.7215 190.096 85.4815 189.936 85.2948C189.776 85.0948 189.576 84.9948 189.336 84.9948C189.109 84.9948 188.916 85.0948 188.756 85.2948C188.596 85.4815 188.516 85.7215 188.516 86.0148C188.516 86.3081 188.589 86.5481 188.736 86.7348ZM192.296 86.0148C192.296 86.8015 192.016 87.4681 191.456 88.0148C190.896 88.5481 190.189 88.8148 189.336 88.8148C188.496 88.8148 187.796 88.5415 187.236 87.9948C186.676 87.4481 186.396 86.7881 186.396 86.0148C186.396 85.2281 186.676 84.5615 187.236 84.0148C187.796 83.4681 188.496 83.1948 189.336 83.1948C190.189 83.1948 190.896 83.4681 191.456 84.0148C192.016 84.5615 192.296 85.2281 192.296 86.0148ZM180.856 78.5548C181.016 78.7281 181.216 78.8148 181.456 78.8148C181.696 78.8148 181.896 78.7281 182.056 78.5548C182.216 78.3681 182.296 78.1281 182.296 77.8348C182.296 77.5415 182.216 77.3015 182.056 77.1148C181.896 76.9148 181.696 76.8148 181.456 76.8148C181.229 76.8148 181.036 76.9148 180.876 77.1148C180.716 77.3015 180.636 77.5415 180.636 77.8348C180.636 78.1281 180.709 78.3681 180.856 78.5548ZM184.416 77.8348C184.416 78.6215 184.136 79.2881 183.576 79.8348C183.016 80.3681 182.309 80.6348 181.456 80.6348C180.616 80.6348 179.916 80.3615 179.356 79.8148C178.796 79.2681 178.516 78.6081 178.516 77.8348C178.516 77.0481 178.796 76.3815 179.356 75.8348C179.916 75.2881 180.616 75.0148 181.456 75.0148C182.309 75.0148 183.016 75.2881 183.576 75.8348C184.136 76.3815 184.416 77.0481 184.416 77.8348Z" fill="#2F2F2F"/>
<path d="M75.2149 171.169V173.869H69.6949V176.209C70.1082 176.089 70.5815 176.029 71.1149 176.029C72.4615 176.029 73.6215 176.436 74.5949 177.249C75.5682 178.062 76.0549 179.162 76.0549 180.549C76.0549 181.922 75.5482 183.062 74.5349 183.969C73.5349 184.862 72.2949 185.309 70.8149 185.309C68.9215 185.309 67.3415 184.609 66.0749 183.209L67.7149 180.929C67.8349 181.049 67.9949 181.196 68.1949 181.369C68.3949 181.542 68.7615 181.776 69.2949 182.069C69.8282 182.349 70.3615 182.489 70.8949 182.489C71.4282 182.489 71.9015 182.329 72.3149 182.009C72.7282 181.689 72.9349 181.216 72.9349 180.589C72.9349 179.962 72.7082 179.482 72.2549 179.149C71.8149 178.802 71.2415 178.629 70.5349 178.629C69.8282 178.629 69.0082 178.882 68.0749 179.389L66.7749 177.989V171.169H75.2149ZM91.8689 171.169L81.8489 185.149H78.4089L88.4489 171.169H91.8689ZM88.5089 183.229C88.6689 183.402 88.8689 183.489 89.1089 183.489C89.3489 183.489 89.5489 183.402 89.7089 183.229C89.8689 183.042 89.9489 182.802 89.9489 182.509C89.9489 182.216 89.8689 181.976 89.7089 181.789C89.5489 181.589 89.3489 181.489 89.1089 181.489C88.8823 181.489 88.6889 181.589 88.5289 181.789C88.3689 181.976 88.2889 182.216 88.2889 182.509C88.2889 182.802 88.3623 183.042 88.5089 183.229ZM92.0689 182.509C92.0689 183.296 91.7889 183.962 91.2289 184.509C90.6689 185.042 89.9623 185.309 89.1089 185.309C88.2689 185.309 87.5689 185.036 87.0089 184.489C86.4489 183.942 86.1689 183.282 86.1689 182.509C86.1689 181.722 86.4489 181.056 87.0089 180.509C87.5689 179.962 88.2689 179.689 89.1089 179.689C89.9623 179.689 90.6689 179.962 91.2289 180.509C91.7889 181.056 92.0689 181.722 92.0689 182.509ZM80.6289 175.049C80.7889 175.222 80.9889 175.309 81.2289 175.309C81.4689 175.309 81.6689 175.222 81.8289 175.049C81.9889 174.862 82.0689 174.622 82.0689 174.329C82.0689 174.036 81.9889 173.796 81.8289 173.609C81.6689 173.409 81.4689 173.309 81.2289 173.309C81.0023 173.309 80.8089 173.409 80.6489 173.609C80.4889 173.796 80.4089 174.036 80.4089 174.329C80.4089 174.622 80.4823 174.862 80.6289 175.049ZM84.1889 174.329C84.1889 175.116 83.9089 175.782 83.3489 176.329C82.7889 176.862 82.0823 177.129 81.2289 177.129C80.3889 177.129 79.6889 176.856 79.1289 176.309C78.5689 175.762 78.2889 175.102 78.2889 174.329C78.2889 173.542 78.5689 172.876 79.1289 172.329C79.6889 171.782 80.3889 171.509 81.2289 171.509C82.0823 171.509 82.7889 171.782 83.3489 172.329C83.9089 172.876 84.1889 173.542 84.1889 174.329Z" fill="#2F2F2F"/>
<path d="M49.7939 347.102C50.6206 346.262 51.2073 345.595 51.5539 345.102C51.9139 344.595 52.0939 344.108 52.0939 343.642C52.0939 343.175 51.9406 342.788 51.6339 342.482C51.3273 342.162 50.9339 342.002 50.4539 342.002C49.5739 342.002 48.7406 342.628 47.9539 343.882L45.4539 342.402C46.1073 341.388 46.8206 340.622 47.5939 340.102C48.3806 339.582 49.3739 339.322 50.5739 339.322C51.7873 339.322 52.8473 339.708 53.7539 340.482C54.6739 341.242 55.1339 342.282 55.1339 343.602C55.1339 344.322 54.9473 345.015 54.5739 345.682C54.2139 346.335 53.5406 347.175 52.5539 348.202L50.0339 350.822H55.5539V353.622H45.6939V351.302L49.7939 347.102ZM61.4833 343.182C61.0433 344.035 60.8233 345.162 60.8233 346.562C60.8233 347.962 61.0433 349.088 61.4833 349.942C61.9233 350.795 62.61 351.222 63.5433 351.222C64.4766 351.222 65.1633 350.795 65.6033 349.942C66.0433 349.088 66.2633 347.962 66.2633 346.562C66.2633 345.162 66.0433 344.035 65.6033 343.182C65.1633 342.328 64.4766 341.902 63.5433 341.902C62.61 341.902 61.9233 342.328 61.4833 343.182ZM63.5433 353.782C61.61 353.782 60.1633 353.128 59.2033 351.822C58.2433 350.502 57.7633 348.748 57.7633 346.562C57.7633 344.362 58.2433 342.608 59.2033 341.302C60.1633 339.982 61.61 339.322 63.5433 339.322C65.4766 339.322 66.9233 339.982 67.8833 341.302C68.8433 342.608 69.3233 344.362 69.3233 346.562C69.3233 348.748 68.8433 350.502 67.8833 351.822C66.9233 353.128 65.4766 353.782 63.5433 353.782ZM85.3119 339.642L75.2919 353.622H71.8519L81.8919 339.642H85.3119ZM81.9519 351.702C82.1119 351.875 82.3119 351.962 82.5519 351.962C82.7919 351.962 82.9919 351.875 83.1519 351.702C83.3119 351.515 83.3919 351.275 83.3919 350.982C83.3919 350.688 83.3119 350.448 83.1519 350.262C82.9919 350.062 82.7919 349.962 82.5519 349.962C82.3252 349.962 82.1319 350.062 81.9719 350.262C81.8119 350.448 81.7319 350.688 81.7319 350.982C81.7319 351.275 81.8052 351.515 81.9519 351.702ZM85.5119 350.982C85.5119 351.768 85.2319 352.435 84.6719 352.982C84.1119 353.515 83.4052 353.782 82.5519 353.782C81.7119 353.782 81.0119 353.508 80.4519 352.962C79.8919 352.415 79.6119 351.755 79.6119 350.982C79.6119 350.195 79.8919 349.528 80.4519 348.982C81.0119 348.435 81.7119 348.162 82.5519 348.162C83.4052 348.162 84.1119 348.435 84.6719 348.982C85.2319 349.528 85.5119 350.195 85.5119 350.982ZM74.0719 343.522C74.2319 343.695 74.4319 343.782 74.6719 343.782C74.9119 343.782 75.1119 343.695 75.2719 343.522C75.4319 343.335 75.5119 343.095 75.5119 342.802C75.5119 342.508 75.4319 342.268 75.2719 342.082C75.1119 341.882 74.9119 341.782 74.6719 341.782C74.4452 341.782 74.2519 341.882 74.0919 342.082C73.9319 342.268 73.8519 342.508 73.8519 342.802C73.8519 343.095 73.9252 343.335 74.0719 343.522ZM77.6319 342.802C77.6319 343.588 77.3519 344.255 76.7919 344.802C76.2319 345.335 75.5252 345.602 74.6719 345.602C73.8319 345.602 73.1319 345.328 72.5719 344.782C72.0119 344.235 71.7319 343.575 71.7319 342.802C71.7319 342.015 72.0119 341.348 72.5719 340.802C73.1319 340.255 73.8319 339.982 74.6719 339.982C75.5252 339.982 76.2319 340.255 76.7919 340.802C77.3519 341.348 77.6319 342.015 77.6319 342.802Z" fill="#2F2F2F"/>
<path d="M188.938 478.445H194.598V492.425H191.598V481.105H188.938V478.445ZM201.224 481.985C200.784 482.839 200.564 483.965 200.564 485.365C200.564 486.765 200.784 487.892 201.224 488.745C201.664 489.599 202.351 490.025 203.284 490.025C204.217 490.025 204.904 489.599 205.344 488.745C205.784 487.892 206.004 486.765 206.004 485.365C206.004 483.965 205.784 482.839 205.344 481.985C204.904 481.132 204.217 480.705 203.284 480.705C202.351 480.705 201.664 481.132 201.224 481.985ZM203.284 492.585C201.351 492.585 199.904 491.932 198.944 490.625C197.984 489.305 197.504 487.552 197.504 485.365C197.504 483.165 197.984 481.412 198.944 480.105C199.904 478.785 201.351 478.125 203.284 478.125C205.217 478.125 206.664 478.785 207.624 480.105C208.584 481.412 209.064 483.165 209.064 485.365C209.064 487.552 208.584 489.305 207.624 490.625C206.664 491.932 205.217 492.585 203.284 492.585ZM225.053 478.445L215.033 492.425H211.593L221.633 478.445H225.053ZM221.693 490.505C221.853 490.679 222.053 490.765 222.293 490.765C222.533 490.765 222.733 490.679 222.893 490.505C223.053 490.319 223.133 490.079 223.133 489.785C223.133 489.492 223.053 489.252 222.893 489.065C222.733 488.865 222.533 488.765 222.293 488.765C222.066 488.765 221.873 488.865 221.713 489.065C221.553 489.252 221.473 489.492 221.473 489.785C221.473 490.079 221.546 490.319 221.693 490.505ZM225.253 489.785C225.253 490.572 224.973 491.239 224.413 491.785C223.853 492.319 223.146 492.585 222.293 492.585C221.453 492.585 220.753 492.312 220.193 491.765C219.633 491.219 219.353 490.559 219.353 489.785C219.353 488.999 219.633 488.332 220.193 487.785C220.753 487.239 221.453 486.965 222.293 486.965C223.146 486.965 223.853 487.239 224.413 487.785C224.973 488.332 225.253 488.999 225.253 489.785ZM213.813 482.325C213.973 482.499 214.173 482.585 214.413 482.585C214.653 482.585 214.853 482.499 215.013 482.325C215.173 482.139 215.253 481.899 215.253 481.605C215.253 481.312 215.173 481.072 215.013 480.885C214.853 480.685 214.653 480.585 214.413 480.585C214.186 480.585 213.993 480.685 213.833 480.885C213.673 481.072 213.593 481.312 213.593 481.605C213.593 481.899 213.666 482.139 213.813 482.325ZM217.373 481.605C217.373 482.392 217.093 483.059 216.533 483.605C215.973 484.139 215.266 484.405 214.413 484.405C213.573 484.405 212.873 484.132 212.313 483.585C211.753 483.039 211.473 482.379 211.473 481.605C211.473 480.819 211.753 480.152 212.313 479.605C212.873 479.059 213.573 478.785 214.413 478.785C215.266 478.785 215.973 479.059 216.533 479.605C217.093 480.152 217.373 480.819 217.373 481.605Z" fill="#2F2F2F"/>
<path d="M358.357 468.145H364.017V482.125H361.017V470.805H358.357V468.145ZM375.924 468.145V470.845H370.404V473.185C370.817 473.065 371.29 473.005 371.824 473.005C373.17 473.005 374.33 473.412 375.304 474.225C376.277 475.039 376.764 476.139 376.764 477.525C376.764 478.899 376.257 480.039 375.244 480.945C374.244 481.839 373.004 482.285 371.524 482.285C369.63 482.285 368.05 481.585 366.784 480.185L368.424 477.905C368.544 478.025 368.704 478.172 368.904 478.345C369.104 478.519 369.47 478.752 370.004 479.045C370.537 479.325 371.07 479.465 371.604 479.465C372.137 479.465 372.61 479.305 373.024 478.985C373.437 478.665 373.644 478.192 373.644 477.565C373.644 476.939 373.417 476.459 372.964 476.125C372.524 475.779 371.95 475.605 371.244 475.605C370.537 475.605 369.717 475.859 368.784 476.365L367.484 474.965V468.145H375.924ZM392.578 468.145L382.558 482.125H379.118L389.158 468.145H392.578ZM389.218 480.205C389.378 480.379 389.578 480.465 389.818 480.465C390.058 480.465 390.258 480.379 390.418 480.205C390.578 480.019 390.658 479.779 390.658 479.485C390.658 479.192 390.578 478.952 390.418 478.765C390.258 478.565 390.058 478.465 389.818 478.465C389.591 478.465 389.398 478.565 389.238 478.765C389.078 478.952 388.998 479.192 388.998 479.485C388.998 479.779 389.071 480.019 389.218 480.205ZM392.778 479.485C392.778 480.272 392.498 480.939 391.938 481.485C391.378 482.019 390.671 482.285 389.818 482.285C388.978 482.285 388.278 482.012 387.718 481.465C387.158 480.919 386.878 480.259 386.878 479.485C386.878 478.699 387.158 478.032 387.718 477.485C388.278 476.939 388.978 476.665 389.818 476.665C390.671 476.665 391.378 476.939 391.938 477.485C392.498 478.032 392.778 478.699 392.778 479.485ZM381.338 472.025C381.498 472.199 381.698 472.285 381.938 472.285C382.178 472.285 382.378 472.199 382.538 472.025C382.698 471.839 382.778 471.599 382.778 471.305C382.778 471.012 382.698 470.772 382.538 470.585C382.378 470.385 382.178 470.285 381.938 470.285C381.711 470.285 381.518 470.385 381.358 470.585C381.198 470.772 381.118 471.012 381.118 471.305C381.118 471.599 381.191 471.839 381.338 472.025ZM384.898 471.305C384.898 472.092 384.618 472.759 384.058 473.305C383.498 473.839 382.791 474.105 381.938 474.105C381.098 474.105 380.398 473.832 379.838 473.285C379.278 472.739 378.998 472.079 378.998 471.305C378.998 470.519 379.278 469.852 379.838 469.305C380.398 468.759 381.098 468.485 381.938 468.485C382.791 468.485 383.498 468.759 384.058 469.305C384.618 469.852 384.898 470.519 384.898 471.305Z" fill="#2F2F2F"/>
<path d="M467.163 339.642H472.823V353.622H469.823V342.302H467.163V339.642ZM479.449 343.182C479.009 344.035 478.789 345.162 478.789 346.562C478.789 347.962 479.009 349.088 479.449 349.942C479.889 350.795 480.576 351.222 481.509 351.222C482.443 351.222 483.129 350.795 483.569 349.942C484.009 349.088 484.229 347.962 484.229 346.562C484.229 345.162 484.009 344.035 483.569 343.182C483.129 342.328 482.443 341.902 481.509 341.902C480.576 341.902 479.889 342.328 479.449 343.182ZM481.509 353.782C479.576 353.782 478.129 353.128 477.169 351.822C476.209 350.502 475.729 348.748 475.729 346.562C475.729 344.362 476.209 342.608 477.169 341.302C478.129 339.982 479.576 339.322 481.509 339.322C483.443 339.322 484.889 339.982 485.849 341.302C486.809 342.608 487.289 344.362 487.289 346.562C487.289 348.748 486.809 350.502 485.849 351.822C484.889 353.128 483.443 353.782 481.509 353.782ZM503.278 339.642L493.258 353.622H489.818L499.858 339.642H503.278ZM499.918 351.702C500.078 351.875 500.278 351.962 500.518 351.962C500.758 351.962 500.958 351.875 501.118 351.702C501.278 351.515 501.358 351.275 501.358 350.982C501.358 350.688 501.278 350.448 501.118 350.262C500.958 350.062 500.758 349.962 500.518 349.962C500.291 349.962 500.098 350.062 499.938 350.262C499.778 350.448 499.698 350.688 499.698 350.982C499.698 351.275 499.771 351.515 499.918 351.702ZM503.478 350.982C503.478 351.768 503.198 352.435 502.638 352.982C502.078 353.515 501.371 353.782 500.518 353.782C499.678 353.782 498.978 353.508 498.418 352.962C497.858 352.415 497.578 351.755 497.578 350.982C497.578 350.195 497.858 349.528 498.418 348.982C498.978 348.435 499.678 348.162 500.518 348.162C501.371 348.162 502.078 348.435 502.638 348.982C503.198 349.528 503.478 350.195 503.478 350.982ZM492.038 343.522C492.198 343.695 492.398 343.782 492.638 343.782C492.878 343.782 493.078 343.695 493.238 343.522C493.398 343.335 493.478 343.095 493.478 342.802C493.478 342.508 493.398 342.268 493.238 342.082C493.078 341.882 492.878 341.782 492.638 341.782C492.411 341.782 492.218 341.882 492.058 342.082C491.898 342.268 491.818 342.508 491.818 342.802C491.818 343.095 491.891 343.335 492.038 343.522ZM495.598 342.802C495.598 343.588 495.318 344.255 494.758 344.802C494.198 345.335 493.491 345.602 492.638 345.602C491.798 345.602 491.098 345.328 490.538 344.782C489.978 344.235 489.698 343.575 489.698 342.802C489.698 342.015 489.978 341.348 490.538 340.802C491.098 340.255 491.798 339.982 492.638 339.982C493.491 339.982 494.198 340.255 494.758 340.802C495.318 341.348 495.598 342.015 495.598 342.802Z" fill="#2F2F2F"/>
<path d="M416.864 122.743C417.691 121.903 418.277 121.236 418.624 120.743C418.984 120.236 419.164 119.749 419.164 119.283C419.164 118.816 419.011 118.429 418.704 118.123C418.397 117.803 418.004 117.643 417.524 117.643C416.644 117.643 415.811 118.269 415.024 119.523L412.524 118.043C413.177 117.029 413.891 116.263 414.664 115.743C415.451 115.223 416.444 114.963 417.644 114.963C418.857 114.963 419.917 115.349 420.824 116.123C421.744 116.883 422.204 117.923 422.204 119.243C422.204 119.963 422.017 120.656 421.644 121.323C421.284 121.976 420.611 122.816 419.624 123.843L417.104 126.463H422.624V129.263H412.764V126.943L416.864 122.743ZM433.833 115.283V117.983H428.313V120.323C428.727 120.203 429.2 120.143 429.733 120.143C431.08 120.143 432.24 120.549 433.213 121.363C434.187 122.176 434.673 123.276 434.673 124.663C434.673 126.036 434.167 127.176 433.153 128.083C432.153 128.976 430.913 129.423 429.433 129.423C427.54 129.423 425.96 128.723 424.693 127.323L426.333 125.043C426.453 125.163 426.613 125.309 426.813 125.483C427.013 125.656 427.38 125.889 427.913 126.183C428.447 126.463 428.98 126.603 429.513 126.603C430.047 126.603 430.52 126.443 430.933 126.123C431.347 125.803 431.553 125.329 431.553 124.703C431.553 124.076 431.327 123.596 430.873 123.263C430.433 122.916 429.86 122.743 429.153 122.743C428.447 122.743 427.627 122.996 426.693 123.503L425.393 122.103V115.283H433.833ZM450.487 115.283L440.467 129.263H437.027L447.067 115.283H450.487ZM447.127 127.343C447.287 127.516 447.487 127.603 447.727 127.603C447.967 127.603 448.167 127.516 448.327 127.343C448.487 127.156 448.567 126.916 448.567 126.623C448.567 126.329 448.487 126.089 448.327 125.903C448.167 125.703 447.967 125.603 447.727 125.603C447.501 125.603 447.307 125.703 447.147 125.903C446.987 126.089 446.907 126.329 446.907 126.623C446.907 126.916 446.981 127.156 447.127 127.343ZM450.687 126.623C450.687 127.409 450.407 128.076 449.847 128.623C449.287 129.156 448.581 129.423 447.727 129.423C446.887 129.423 446.187 129.149 445.627 128.603C445.067 128.056 444.787 127.396 444.787 126.623C444.787 125.836 445.067 125.169 445.627 124.623C446.187 124.076 446.887 123.803 447.727 123.803C448.581 123.803 449.287 124.076 449.847 124.623C450.407 125.169 450.687 125.836 450.687 126.623ZM439.247 119.163C439.407 119.336 439.607 119.423 439.847 119.423C440.087 119.423 440.287 119.336 440.447 119.163C440.607 118.976 440.687 118.736 440.687 118.443C440.687 118.149 440.607 117.909 440.447 117.723C440.287 117.523 440.087 117.423 439.847 117.423C439.621 117.423 439.427 117.523 439.267 117.723C439.107 117.909 439.027 118.149 439.027 118.443C439.027 118.736 439.101 118.976 439.247 119.163ZM442.807 118.443C442.807 119.229 442.527 119.896 441.967 120.443C441.407 120.976 440.701 121.243 439.847 121.243C439.007 121.243 438.307 120.969 437.747 120.423C437.187 119.876 436.907 119.216 436.907 118.443C436.907 117.656 437.187 116.989 437.747 116.443C438.307 115.896 439.007 115.623 439.847 115.623C440.701 115.623 441.407 115.896 441.967 116.443C442.527 116.989 442.807 117.656 442.807 118.443Z" fill="#2F2F2F"/>
</svg>
