<svg width="432" height="432" viewBox="0 0 432 432" fill="none" xmlns="http://www.w3.org/2000/svg">
<path d="M216 0C164.57 0 114.828 18.351 75.7197 51.7523C36.6118 85.1535 10.7053 131.413 2.6598 182.21C-5.38566 233.007 4.95796 285.008 31.8302 328.859C58.7024 372.711 100.34 405.535 149.253 421.428L175.952 339.257C146.604 329.721 121.622 310.026 105.498 283.716C89.3749 257.405 83.1688 226.204 87.996 195.726C92.8233 165.248 108.367 137.492 131.832 117.451C155.297 97.4105 185.142 86.3999 216 86.3999V0Z" fill="#FFBD40"/>
<path d="M149.252 421.428C192.635 435.524 239.366 435.524 282.748 421.428L256.049 339.257C230.019 347.714 201.981 347.714 175.951 339.257L149.252 421.428Z" fill="#BAA895"/>
<path d="M282.747 421.427C326.13 407.332 363.936 379.864 390.747 342.961L320.848 292.176C304.761 314.318 282.078 330.799 256.048 339.256L282.747 421.427Z" fill="#F6E5CF"/>
<path d="M390.748 342.962C404.07 324.625 414.424 304.305 421.428 282.748L339.257 256.049C335.054 268.983 328.842 281.175 320.849 292.177L390.748 342.962Z" fill="#DDB798"/>
<path d="M421.428 282.746C429.841 256.855 433.283 229.606 431.574 202.436L345.344 207.861C346.37 224.163 344.304 240.512 339.257 256.047L421.428 282.746Z" fill="#9D8761"/>
<path d="M431.574 202.437C429.578 170.704 420.6 139.804 405.283 111.941L329.57 153.564C338.76 170.282 344.147 188.822 345.345 207.862L431.574 202.437Z" fill="#FFCA64"/>
<path d="M405.283 111.941C394.363 92.0789 380.385 74.059 363.863 58.543L304.718 121.526C314.631 130.835 323.018 141.647 329.57 153.565L405.283 111.941Z" fill="#EF792B"/>
<path d="M363.862 58.5411C347.339 43.0251 328.477 30.2064 307.968 20.5557L271.181 98.7327C283.486 104.523 294.804 112.214 304.717 121.524L363.862 58.5411Z" fill="#BD772F"/>
<path d="M307.968 20.5568C299.779 16.7032 291.355 13.3681 282.747 10.5713L256.048 92.7425C261.213 94.4206 266.267 96.4217 271.181 98.7339L307.968 20.5568Z" fill="#8D7466"/>
<path d="M282.748 10.5718C261.191 3.56759 238.667 0 216 0L216 86.3999C229.6 86.3999 243.115 88.5405 256.049 92.743L282.748 10.5718Z" fill="#E8A838"/>
</svg>
