<svg width="432" height="432" viewBox="0 0 432 432" fill="none" xmlns="http://www.w3.org/2000/svg">
<path d="M216 0C164.57 0 114.828 18.351 75.7197 51.7523C36.6118 85.1535 10.7053 131.413 2.6598 182.21C-5.38566 233.007 4.95796 285.008 31.8302 328.859C58.7024 372.711 100.34 405.535 149.253 421.428L175.952 339.257C146.604 329.721 121.622 310.026 105.498 283.716C89.3749 257.405 83.1688 226.204 87.996 195.726C92.8233 165.248 108.367 137.492 131.832 117.451C155.297 97.4105 185.142 86.3999 216 86.3999V0Z" fill="#FFBD40"/>
<path d="M149.252 421.428C192.635 435.524 239.366 435.524 282.748 421.428L256.049 339.257C230.019 347.714 201.981 347.714 175.951 339.257L149.252 421.428Z" fill="#BAA895"/>
<path d="M282.747 421.427C326.13 407.332 363.936 379.864 390.747 342.961L320.848 292.176C304.761 314.318 282.078 330.799 256.048 339.256L282.747 421.427Z" fill="#F6E5CF"/>
<path d="M390.748 342.962C404.07 324.625 414.424 304.305 421.428 282.748L339.257 256.049C335.054 268.983 328.842 281.175 320.849 292.177L390.748 342.962Z" fill="#DDB798"/>
<path d="M421.428 282.746C429.841 256.855 433.283 229.606 431.574 202.436L345.344 207.861C346.37 224.163 344.304 240.512 339.257 256.047L421.428 282.746Z" fill="#9D8761"/>
<path d="M431.574 202.437C429.578 170.704 420.6 139.804 405.283 111.941L329.57 153.564C338.76 170.282 344.147 188.822 345.345 207.862L431.574 202.437Z" fill="#FFCA64"/>
<path d="M405.283 111.941C394.363 92.0789 380.385 74.059 363.863 58.543L304.718 121.526C314.631 130.835 323.018 141.647 329.57 153.565L405.283 111.941Z" fill="#EF792B"/>
<path d="M363.862 58.5411C347.339 43.0251 328.477 30.2064 307.968 20.5557L271.181 98.7327C283.486 104.523 294.804 112.214 304.717 121.524L363.862 58.5411Z" fill="#BD772F"/>
<path d="M307.968 20.5568C299.779 16.7032 291.355 13.3681 282.747 10.5713L256.048 92.7425C261.213 94.4206 266.267 96.4217 271.181 98.7339L307.968 20.5568Z" fill="#8D7466"/>
<path d="M282.748 10.5718C261.191 3.56759 238.667 0 216 0L216 86.3999C229.6 86.3999 243.115 88.5405 256.049 92.743L282.748 10.5718Z" fill="#E8A838"/>
<path d="M40.8052 191.097H38.8212V193.641H36.8052V191.097H30.6612V189.657L36.1812 182.441H38.4052L33.2052 189.337H36.8692V187.081H38.8212V189.337H40.8052V191.097ZM45.1377 186.777C46.7164 186.777 47.8844 187.086 48.6417 187.705C49.399 188.313 49.7777 189.145 49.7777 190.201C49.7777 190.873 49.6124 191.481 49.2817 192.025C48.951 192.569 48.455 193.001 47.7937 193.321C47.1324 193.641 46.3164 193.801 45.3457 193.801C44.5457 193.801 43.7724 193.689 43.0257 193.465C42.279 193.23 41.6497 192.91 41.1377 192.505L42.0177 190.889C42.4337 191.23 42.9297 191.502 43.5057 191.705C44.0924 191.897 44.695 191.993 45.3137 191.993C46.0497 191.993 46.6257 191.843 47.0417 191.545C47.4684 191.235 47.6817 190.814 47.6817 190.281C47.6817 189.705 47.4524 189.273 46.9937 188.985C46.5457 188.686 45.7724 188.537 44.6737 188.537H41.9697L42.5457 182.441H49.1217V184.185H44.3057L44.0657 186.777H45.1377ZM53.3172 188.473C52.5172 188.473 51.8719 188.19 51.3812 187.625C50.8905 187.059 50.6452 186.318 50.6452 185.401C50.6452 184.483 50.8905 183.742 51.3812 183.177C51.8719 182.611 52.5172 182.329 53.3172 182.329C54.1172 182.329 54.7625 182.611 55.2532 183.177C55.7545 183.731 56.0052 184.473 56.0052 185.401C56.0052 186.329 55.7545 187.075 55.2532 187.641C54.7625 188.195 54.1172 188.473 53.3172 188.473ZM60.0372 182.441H61.6052L53.9572 193.641H52.3892L60.0372 182.441ZM53.3172 187.353C53.7545 187.353 54.0905 187.182 54.3252 186.841C54.5705 186.499 54.6932 186.019 54.6932 185.401C54.6932 184.782 54.5705 184.302 54.3252 183.961C54.0905 183.619 53.7545 183.449 53.3172 183.449C52.9012 183.449 52.5652 183.625 52.3092 183.977C52.0639 184.318 51.9412 184.793 51.9412 185.401C51.9412 186.009 52.0639 186.489 52.3092 186.841C52.5652 187.182 52.9012 187.353 53.3172 187.353ZM60.6612 193.753C59.8612 193.753 59.2159 193.47 58.7252 192.905C58.2345 192.339 57.9892 191.598 57.9892 190.681C57.9892 189.763 58.2345 189.022 58.7252 188.457C59.2159 187.891 59.8612 187.609 60.6612 187.609C61.4612 187.609 62.1065 187.891 62.5972 188.457C63.0985 189.022 63.3492 189.763 63.3492 190.681C63.3492 191.598 63.0985 192.339 62.5972 192.905C62.1065 193.47 61.4612 193.753 60.6612 193.753ZM60.6612 192.633C61.0879 192.633 61.4239 192.462 61.6692 192.121C61.9145 191.769 62.0372 191.289 62.0372 190.681C62.0372 190.073 61.9145 189.598 61.6692 189.257C61.4239 188.905 61.0879 188.729 60.6612 188.729C60.2345 188.729 59.8985 188.899 59.6532 189.241C59.4079 189.582 59.2852 190.062 59.2852 190.681C59.2852 191.299 59.4079 191.779 59.6532 192.121C59.8985 192.462 60.2345 192.633 60.6612 192.633Z" fill="#333333"/>
<path d="M207.435 382.272V393.472H205.355V384.016H202.987V382.272H207.435ZM214.329 393.632C213.433 393.632 212.633 393.408 211.929 392.96C211.225 392.501 210.67 391.84 210.265 390.976C209.86 390.101 209.657 389.066 209.657 387.872C209.657 386.677 209.86 385.648 210.265 384.784C210.67 383.909 211.225 383.248 211.929 382.8C212.633 382.341 213.433 382.112 214.329 382.112C215.225 382.112 216.025 382.341 216.729 382.8C217.444 383.248 218.004 383.909 218.409 384.784C218.814 385.648 219.017 386.677 219.017 387.872C219.017 389.066 218.814 390.101 218.409 390.976C218.004 391.84 217.444 392.501 216.729 392.96C216.025 393.408 215.225 393.632 214.329 393.632ZM214.329 391.824C215.129 391.824 215.758 391.493 216.217 390.832C216.686 390.17 216.921 389.184 216.921 387.872C216.921 386.56 216.686 385.573 216.217 384.912C215.758 384.25 215.129 383.92 214.329 383.92C213.54 383.92 212.91 384.25 212.441 384.912C211.982 385.573 211.753 386.56 211.753 387.872C211.753 389.184 211.982 390.17 212.441 390.832C212.91 391.493 213.54 391.824 214.329 391.824ZM222.919 388.304C222.119 388.304 221.473 388.021 220.983 387.456C220.492 386.89 220.247 386.149 220.247 385.232C220.247 384.314 220.492 383.573 220.983 383.008C221.473 382.442 222.119 382.16 222.919 382.16C223.719 382.16 224.364 382.442 224.855 383.008C225.356 383.562 225.607 384.304 225.607 385.232C225.607 386.16 225.356 386.906 224.855 387.472C224.364 388.026 223.719 388.304 222.919 388.304ZM229.639 382.272H231.207L223.559 393.472H221.991L229.639 382.272ZM222.919 387.184C223.356 387.184 223.692 387.013 223.927 386.672C224.172 386.33 224.295 385.85 224.295 385.232C224.295 384.613 224.172 384.133 223.927 383.792C223.692 383.45 223.356 383.28 222.919 383.28C222.503 383.28 222.167 383.456 221.911 383.808C221.665 384.149 221.543 384.624 221.543 385.232C221.543 385.84 221.665 386.32 221.911 386.672C222.167 387.013 222.503 387.184 222.919 387.184ZM230.263 393.584C229.463 393.584 228.817 393.301 228.327 392.736C227.836 392.17 227.591 391.429 227.591 390.512C227.591 389.594 227.836 388.853 228.327 388.288C228.817 387.722 229.463 387.44 230.263 387.44C231.063 387.44 231.708 387.722 232.199 388.288C232.7 388.853 232.951 389.594 232.951 390.512C232.951 391.429 232.7 392.17 232.199 392.736C231.708 393.301 231.063 393.584 230.263 393.584ZM230.263 392.464C230.689 392.464 231.025 392.293 231.271 391.952C231.516 391.6 231.639 391.12 231.639 390.512C231.639 389.904 231.516 389.429 231.271 389.088C231.025 388.736 230.689 388.56 230.263 388.56C229.836 388.56 229.5 388.73 229.255 389.072C229.009 389.413 228.887 389.893 228.887 390.512C228.887 391.13 229.009 391.61 229.255 391.952C229.5 392.293 229.836 392.464 230.263 392.464Z" fill="#333333"/>
<path d="M309.006 349.271V360.471H306.926V351.015H304.558V349.271H309.006ZM315.899 360.631C315.003 360.631 314.203 360.407 313.499 359.959C312.795 359.5 312.241 358.839 311.835 357.975C311.43 357.1 311.227 356.065 311.227 354.871C311.227 353.676 311.43 352.647 311.835 351.783C312.241 350.908 312.795 350.247 313.499 349.799C314.203 349.34 315.003 349.111 315.899 349.111C316.795 349.111 317.595 349.34 318.299 349.799C319.014 350.247 319.574 350.908 319.979 351.783C320.385 352.647 320.587 353.676 320.587 354.871C320.587 356.065 320.385 357.1 319.979 357.975C319.574 358.839 319.014 359.5 318.299 359.959C317.595 360.407 316.795 360.631 315.899 360.631ZM315.899 358.823C316.699 358.823 317.329 358.492 317.787 357.831C318.257 357.169 318.491 356.183 318.491 354.871C318.491 353.559 318.257 352.572 317.787 351.911C317.329 351.249 316.699 350.919 315.899 350.919C315.11 350.919 314.481 351.249 314.011 351.911C313.553 352.572 313.323 353.559 313.323 354.871C313.323 356.183 313.553 357.169 314.011 357.831C314.481 358.492 315.11 358.823 315.899 358.823ZM324.489 355.303C323.689 355.303 323.044 355.02 322.553 354.455C322.062 353.889 321.817 353.148 321.817 352.231C321.817 351.313 322.062 350.572 322.553 350.007C323.044 349.441 323.689 349.159 324.489 349.159C325.289 349.159 325.934 349.441 326.425 350.007C326.926 350.561 327.177 351.303 327.177 352.231C327.177 353.159 326.926 353.905 326.425 354.471C325.934 355.025 325.289 355.303 324.489 355.303ZM331.209 349.271H332.777L325.129 360.471H323.561L331.209 349.271ZM324.489 354.183C324.926 354.183 325.262 354.012 325.497 353.671C325.742 353.329 325.865 352.849 325.865 352.231C325.865 351.612 325.742 351.132 325.497 350.791C325.262 350.449 324.926 350.279 324.489 350.279C324.073 350.279 323.737 350.455 323.481 350.807C323.236 351.148 323.113 351.623 323.113 352.231C323.113 352.839 323.236 353.319 323.481 353.671C323.737 354.012 324.073 354.183 324.489 354.183ZM331.833 360.583C331.033 360.583 330.388 360.3 329.897 359.735C329.406 359.169 329.161 358.428 329.161 357.511C329.161 356.593 329.406 355.852 329.897 355.287C330.388 354.721 331.033 354.439 331.833 354.439C332.633 354.439 333.278 354.721 333.769 355.287C334.27 355.852 334.521 356.593 334.521 357.511C334.521 358.428 334.27 359.169 333.769 359.735C333.278 360.3 332.633 360.583 331.833 360.583ZM331.833 359.463C332.26 359.463 332.596 359.292 332.841 358.951C333.086 358.599 333.209 358.119 333.209 357.511C333.209 356.903 333.086 356.428 332.841 356.087C332.596 355.735 332.26 355.559 331.833 355.559C331.406 355.559 331.07 355.729 330.825 356.071C330.58 356.412 330.457 356.892 330.457 357.511C330.457 358.129 330.58 358.609 330.825 358.951C331.07 359.292 331.406 359.463 331.833 359.463Z" fill="#333333"/>
<path d="M365.07 292.258C366.648 292.258 367.816 292.567 368.574 293.186C369.331 293.794 369.71 294.626 369.71 295.682C369.71 296.354 369.544 296.962 369.214 297.506C368.883 298.05 368.387 298.482 367.726 298.802C367.064 299.122 366.248 299.282 365.278 299.282C364.478 299.282 363.704 299.17 362.958 298.946C362.211 298.711 361.582 298.391 361.07 297.986L361.95 296.37C362.366 296.711 362.862 296.983 363.438 297.186C364.024 297.378 364.627 297.474 365.246 297.474C365.982 297.474 366.558 297.325 366.974 297.026C367.4 296.717 367.614 296.295 367.614 295.762C367.614 295.186 367.384 294.754 366.926 294.466C366.478 294.167 365.704 294.018 364.606 294.018H361.902L362.478 287.922H369.054V289.666H364.238L363.998 292.258H365.07ZM373.249 293.954C372.449 293.954 371.804 293.671 371.313 293.106C370.823 292.541 370.577 291.799 370.577 290.882C370.577 289.965 370.823 289.223 371.313 288.658C371.804 288.093 372.449 287.81 373.249 287.81C374.049 287.81 374.695 288.093 375.185 288.658C375.687 289.213 375.937 289.954 375.937 290.882C375.937 291.81 375.687 292.557 375.185 293.122C374.695 293.677 374.049 293.954 373.249 293.954ZM379.969 287.922H381.537L373.889 299.122H372.321L379.969 287.922ZM373.249 292.834C373.687 292.834 374.023 292.663 374.257 292.322C374.503 291.981 374.625 291.501 374.625 290.882C374.625 290.263 374.503 289.783 374.257 289.442C374.023 289.101 373.687 288.93 373.249 288.93C372.833 288.93 372.497 289.106 372.241 289.458C371.996 289.799 371.873 290.274 371.873 290.882C371.873 291.49 371.996 291.97 372.241 292.322C372.497 292.663 372.833 292.834 373.249 292.834ZM380.593 299.234C379.793 299.234 379.148 298.951 378.657 298.386C378.167 297.821 377.921 297.079 377.921 296.162C377.921 295.245 378.167 294.503 378.657 293.938C379.148 293.373 379.793 293.09 380.593 293.09C381.393 293.09 382.039 293.373 382.529 293.938C383.031 294.503 383.281 295.245 383.281 296.162C383.281 297.079 383.031 297.821 382.529 298.386C382.039 298.951 381.393 299.234 380.593 299.234ZM380.593 298.114C381.02 298.114 381.356 297.943 381.601 297.602C381.847 297.25 381.969 296.77 381.969 296.162C381.969 295.554 381.847 295.079 381.601 294.738C381.356 294.386 381.02 294.21 380.593 294.21C380.167 294.21 379.831 294.381 379.585 294.722C379.34 295.063 379.217 295.543 379.217 296.162C379.217 296.781 379.34 297.261 379.585 297.602C379.831 297.943 380.167 298.114 380.593 298.114Z" fill="#333333"/>
<path d="M383.359 235.419C384.095 235.419 384.757 235.563 385.343 235.851C385.93 236.128 386.389 236.528 386.719 237.051C387.05 237.574 387.215 238.176 387.215 238.859C387.215 239.584 387.034 240.224 386.671 240.779C386.309 241.323 385.818 241.744 385.199 242.043C384.581 242.342 383.887 242.491 383.119 242.491C381.583 242.491 380.389 242.011 379.535 241.051C378.693 240.091 378.271 238.715 378.271 236.923C378.271 235.664 378.501 234.592 378.959 233.707C379.418 232.811 380.058 232.134 380.879 231.675C381.711 231.206 382.671 230.971 383.759 230.971C384.335 230.971 384.874 231.035 385.375 231.163C385.887 231.28 386.33 231.456 386.703 231.691L385.935 233.259C385.381 232.896 384.671 232.715 383.807 232.715C382.73 232.715 381.887 233.046 381.279 233.707C380.671 234.368 380.367 235.323 380.367 236.571V236.587C380.698 236.203 381.119 235.915 381.631 235.723C382.143 235.52 382.719 235.419 383.359 235.419ZM383.007 240.859C383.658 240.859 384.186 240.688 384.591 240.347C384.997 239.995 385.199 239.531 385.199 238.955C385.199 238.368 384.997 237.904 384.591 237.563C384.186 237.222 383.642 237.051 382.959 237.051C382.287 237.051 381.738 237.232 381.311 237.595C380.895 237.958 380.687 238.416 380.687 238.971C380.687 239.515 380.89 239.968 381.295 240.331C381.711 240.683 382.282 240.859 383.007 240.859ZM390.486 237.163C389.686 237.163 389.041 236.88 388.55 236.315C388.059 235.75 387.814 235.008 387.814 234.091C387.814 233.174 388.059 232.432 388.55 231.867C389.041 231.302 389.686 231.019 390.486 231.019C391.286 231.019 391.931 231.302 392.422 231.867C392.923 232.422 393.174 233.163 393.174 234.091C393.174 235.019 392.923 235.766 392.422 236.331C391.931 236.886 391.286 237.163 390.486 237.163ZM397.206 231.131H398.774L391.126 242.331H389.558L397.206 231.131ZM390.486 236.043C390.923 236.043 391.259 235.872 391.494 235.531C391.739 235.19 391.862 234.71 391.862 234.091C391.862 233.472 391.739 232.992 391.494 232.651C391.259 232.31 390.923 232.139 390.486 232.139C390.07 232.139 389.734 232.315 389.478 232.667C389.233 233.008 389.11 233.483 389.11 234.091C389.11 234.699 389.233 235.179 389.478 235.531C389.734 235.872 390.07 236.043 390.486 236.043ZM397.83 242.443C397.03 242.443 396.385 242.16 395.894 241.595C395.403 241.03 395.158 240.288 395.158 239.371C395.158 238.454 395.403 237.712 395.894 237.147C396.385 236.582 397.03 236.299 397.83 236.299C398.63 236.299 399.275 236.582 399.766 237.147C400.267 237.712 400.518 238.454 400.518 239.371C400.518 240.288 400.267 241.03 399.766 241.595C399.275 242.16 398.63 242.443 397.83 242.443ZM397.83 241.323C398.257 241.323 398.593 241.152 398.838 240.811C399.083 240.459 399.206 239.979 399.206 239.371C399.206 238.763 399.083 238.288 398.838 237.947C398.593 237.595 398.257 237.419 397.83 237.419C397.403 237.419 397.067 237.59 396.822 237.931C396.577 238.272 396.454 238.752 396.454 239.371C396.454 239.99 396.577 240.47 396.822 240.811C397.067 241.152 397.403 241.323 397.83 241.323Z" fill="#333333"/>
<path d="M381.174 161.262V162.654L376.822 172.462H374.598L378.806 163.022H374.406V164.926H372.47V161.262H381.174ZM385.035 167.294C384.235 167.294 383.59 167.011 383.099 166.446C382.608 165.881 382.363 165.139 382.363 164.222C382.363 163.305 382.608 162.563 383.099 161.998C383.59 161.433 384.235 161.15 385.035 161.15C385.835 161.15 386.48 161.433 386.971 161.998C387.472 162.553 387.723 163.294 387.723 164.222C387.723 165.15 387.472 165.897 386.971 166.462C386.48 167.017 385.835 167.294 385.035 167.294ZM391.755 161.262H393.323L385.675 172.462H384.107L391.755 161.262ZM385.035 166.174C385.472 166.174 385.808 166.003 386.043 165.662C386.288 165.321 386.411 164.841 386.411 164.222C386.411 163.603 386.288 163.123 386.043 162.782C385.808 162.441 385.472 162.27 385.035 162.27C384.619 162.27 384.283 162.446 384.027 162.798C383.782 163.139 383.659 163.614 383.659 164.222C383.659 164.83 383.782 165.31 384.027 165.662C384.283 166.003 384.619 166.174 385.035 166.174ZM392.379 172.574C391.579 172.574 390.934 172.291 390.443 171.726C389.952 171.161 389.707 170.419 389.707 169.502C389.707 168.585 389.952 167.843 390.443 167.278C390.934 166.713 391.579 166.43 392.379 166.43C393.179 166.43 393.824 166.713 394.315 167.278C394.816 167.843 395.067 168.585 395.067 169.502C395.067 170.419 394.816 171.161 394.315 171.726C393.824 172.291 393.179 172.574 392.379 172.574ZM392.379 171.454C392.806 171.454 393.142 171.283 393.387 170.942C393.632 170.59 393.755 170.11 393.755 169.502C393.755 168.894 393.632 168.419 393.387 168.078C393.142 167.726 392.806 167.55 392.379 167.55C391.952 167.55 391.616 167.721 391.371 168.062C391.126 168.403 391.003 168.883 391.003 169.502C391.003 170.121 391.126 170.601 391.371 170.942C391.616 171.283 391.952 171.454 392.379 171.454Z" fill="#333333"/>
<path d="M347.643 107.899C349.221 107.899 350.389 108.208 351.147 108.827C351.904 109.435 352.283 110.267 352.283 111.323C352.283 111.995 352.117 112.603 351.787 113.147C351.456 113.691 350.96 114.123 350.299 114.443C349.637 114.763 348.821 114.923 347.851 114.923C347.051 114.923 346.277 114.811 345.531 114.587C344.784 114.352 344.155 114.032 343.643 113.627L344.523 112.011C344.939 112.352 345.435 112.624 346.011 112.827C346.597 113.019 347.2 113.115 347.819 113.115C348.555 113.115 349.131 112.965 349.547 112.667C349.973 112.357 350.187 111.936 350.187 111.403C350.187 110.827 349.957 110.395 349.499 110.107C349.051 109.808 348.277 109.659 347.179 109.659H344.475L345.051 103.563H351.627V105.307H346.811L346.571 107.899H347.643ZM355.822 109.595C355.022 109.595 354.377 109.312 353.886 108.747C353.395 108.181 353.15 107.44 353.15 106.523C353.15 105.605 353.395 104.864 353.886 104.299C354.377 103.733 355.022 103.451 355.822 103.451C356.622 103.451 357.267 103.733 357.758 104.299C358.259 104.853 358.51 105.595 358.51 106.523C358.51 107.451 358.259 108.197 357.758 108.763C357.267 109.317 356.622 109.595 355.822 109.595ZM362.542 103.563H364.11L356.462 114.763H354.894L362.542 103.563ZM355.822 108.475C356.259 108.475 356.595 108.304 356.83 107.963C357.075 107.621 357.198 107.141 357.198 106.523C357.198 105.904 357.075 105.424 356.83 105.083C356.595 104.741 356.259 104.571 355.822 104.571C355.406 104.571 355.07 104.747 354.814 105.099C354.569 105.44 354.446 105.915 354.446 106.523C354.446 107.131 354.569 107.611 354.814 107.963C355.07 108.304 355.406 108.475 355.822 108.475ZM363.166 114.875C362.366 114.875 361.721 114.592 361.23 114.027C360.739 113.461 360.494 112.72 360.494 111.803C360.494 110.885 360.739 110.144 361.23 109.579C361.721 109.013 362.366 108.731 363.166 108.731C363.966 108.731 364.611 109.013 365.102 109.579C365.603 110.144 365.854 110.885 365.854 111.803C365.854 112.72 365.603 113.461 365.102 114.027C364.611 114.592 363.966 114.875 363.166 114.875ZM363.166 113.755C363.593 113.755 363.929 113.584 364.174 113.243C364.419 112.891 364.542 112.411 364.542 111.803C364.542 111.195 364.419 110.72 364.174 110.379C363.929 110.027 363.593 109.851 363.166 109.851C362.739 109.851 362.403 110.021 362.158 110.363C361.913 110.704 361.79 111.184 361.79 111.803C361.79 112.421 361.913 112.901 362.158 113.243C362.403 113.584 362.739 113.755 363.166 113.755Z" fill="#333333"/>
<path d="M308.232 70.888C309.811 70.888 310.979 71.1973 311.736 71.816C312.493 72.424 312.872 73.256 312.872 74.312C312.872 74.984 312.707 75.592 312.376 76.136C312.045 76.68 311.549 77.112 310.888 77.432C310.227 77.752 309.411 77.912 308.44 77.912C307.64 77.912 306.867 77.8 306.12 77.576C305.373 77.3413 304.744 77.0213 304.232 76.616L305.112 75C305.528 75.3413 306.024 75.6133 306.6 75.816C307.187 76.008 307.789 76.104 308.408 76.104C309.144 76.104 309.72 75.9546 310.136 75.656C310.563 75.3466 310.776 74.9253 310.776 74.392C310.776 73.816 310.547 73.384 310.088 73.096C309.64 72.7973 308.867 72.648 307.768 72.648H305.064L305.64 66.552H312.216V68.296H307.4L307.16 70.888H308.232ZM316.411 72.584C315.611 72.584 314.966 72.3013 314.475 71.736C313.985 71.1706 313.739 70.4293 313.739 69.512C313.739 68.5946 313.985 67.8533 314.475 67.288C314.966 66.7226 315.611 66.44 316.411 66.44C317.211 66.44 317.857 66.7226 318.347 67.288C318.849 67.8426 319.099 68.584 319.099 69.512C319.099 70.44 318.849 71.1866 318.347 71.752C317.857 72.3066 317.211 72.584 316.411 72.584ZM323.131 66.552H324.699L317.051 77.752H315.483L323.131 66.552ZM316.411 71.464C316.849 71.464 317.185 71.2933 317.419 70.952C317.665 70.6106 317.787 70.1306 317.787 69.512C317.787 68.8933 317.665 68.4133 317.419 68.072C317.185 67.7306 316.849 67.56 316.411 67.56C315.995 67.56 315.659 67.736 315.403 68.088C315.158 68.4293 315.035 68.904 315.035 69.512C315.035 70.12 315.158 70.6 315.403 70.952C315.659 71.2933 315.995 71.464 316.411 71.464ZM323.755 77.864C322.955 77.864 322.31 77.5813 321.819 77.016C321.329 76.4506 321.083 75.7093 321.083 74.792C321.083 73.8746 321.329 73.1333 321.819 72.568C322.31 72.0026 322.955 71.72 323.755 71.72C324.555 71.72 325.201 72.0026 325.691 72.568C326.193 73.1333 326.443 73.8746 326.443 74.792C326.443 75.7093 326.193 76.4506 325.691 77.016C325.201 77.5813 324.555 77.864 323.755 77.864ZM323.755 76.744C324.182 76.744 324.518 76.5733 324.763 76.232C325.009 75.88 325.131 75.4 325.131 74.792C325.131 74.184 325.009 73.7093 324.763 73.368C324.518 73.016 324.182 72.84 323.755 72.84C323.329 72.84 322.993 73.0106 322.747 73.352C322.502 73.6933 322.379 74.1733 322.379 74.792C322.379 75.4106 322.502 75.8906 322.747 76.232C322.993 76.5733 323.329 76.744 323.755 76.744Z" fill="#333333"/>
<path d="M278.683 58.2459V60.0059H270.427V58.6139L274.875 54.3899C275.377 53.9099 275.713 53.4939 275.883 53.1419C276.065 52.7792 276.155 52.4219 276.155 52.0699C276.155 51.5472 275.979 51.1472 275.627 50.8699C275.275 50.5925 274.758 50.4539 274.075 50.4539C272.934 50.4539 272.059 50.8432 271.451 51.6219L269.995 50.5019C270.433 49.9152 271.019 49.4619 271.755 49.1419C272.502 48.8112 273.334 48.6459 274.251 48.6459C275.467 48.6459 276.438 48.9339 277.163 49.5099C277.889 50.0859 278.251 50.8699 278.251 51.8619C278.251 52.4699 278.123 53.0405 277.867 53.5739C277.611 54.1072 277.121 54.7152 276.395 55.3979L273.403 58.2459H278.683ZM282.536 54.8379C281.736 54.8379 281.091 54.5552 280.6 53.9899C280.109 53.4245 279.864 52.6832 279.864 51.7659C279.864 50.8485 280.109 50.1072 280.6 49.5419C281.091 48.9765 281.736 48.6939 282.536 48.6939C283.336 48.6939 283.981 48.9765 284.472 49.5419C284.973 50.0965 285.224 50.8379 285.224 51.7659C285.224 52.6939 284.973 53.4405 284.472 54.0059C283.981 54.5605 283.336 54.8379 282.536 54.8379ZM289.256 48.8059H290.824L283.176 60.0059H281.608L289.256 48.8059ZM282.536 53.7179C282.973 53.7179 283.309 53.5472 283.544 53.2059C283.789 52.8645 283.912 52.3845 283.912 51.7659C283.912 51.1472 283.789 50.6672 283.544 50.3259C283.309 49.9845 282.973 49.8139 282.536 49.8139C282.12 49.8139 281.784 49.9899 281.528 50.3419C281.283 50.6832 281.16 51.1579 281.16 51.7659C281.16 52.3739 281.283 52.8539 281.528 53.2059C281.784 53.5472 282.12 53.7179 282.536 53.7179ZM289.88 60.1179C289.08 60.1179 288.435 59.8352 287.944 59.2699C287.453 58.7045 287.208 57.9632 287.208 57.0459C287.208 56.1285 287.453 55.3872 287.944 54.8219C288.435 54.2565 289.08 53.9739 289.88 53.9739C290.68 53.9739 291.325 54.2565 291.816 54.8219C292.317 55.3872 292.568 56.1285 292.568 57.0459C292.568 57.9632 292.317 58.7045 291.816 59.2699C291.325 59.8352 290.68 60.1179 289.88 60.1179ZM289.88 58.9979C290.307 58.9979 290.643 58.8272 290.888 58.4859C291.133 58.1339 291.256 57.6539 291.256 57.0459C291.256 56.4379 291.133 55.9632 290.888 55.6219C290.643 55.2699 290.307 55.0939 289.88 55.0939C289.453 55.0939 289.117 55.2645 288.872 55.6059C288.627 55.9472 288.504 56.4272 288.504 57.0459C288.504 57.6645 288.627 58.1445 288.872 58.4859C289.117 58.8272 289.453 58.9979 289.88 58.9979Z" fill="#333333"/>
<path d="M238.136 43.136C239.714 43.136 240.882 43.4453 241.64 44.064C242.397 44.672 242.776 45.504 242.776 46.56C242.776 47.232 242.61 47.84 242.28 48.384C241.949 48.928 241.453 49.36 240.792 49.68C240.13 50 239.314 50.16 238.344 50.16C237.544 50.16 236.77 50.048 236.024 49.824C235.277 49.5893 234.648 49.2693 234.136 48.864L235.016 47.248C235.432 47.5893 235.928 47.8613 236.504 48.064C237.09 48.256 237.693 48.352 238.312 48.352C239.048 48.352 239.624 48.2027 240.04 47.904C240.466 47.5947 240.68 47.1733 240.68 46.64C240.68 46.064 240.45 45.632 239.992 45.344C239.544 45.0453 238.77 44.896 237.672 44.896H234.968L235.544 38.8H242.12V40.544H237.304L237.064 43.136H238.136ZM246.315 44.832C245.515 44.832 244.87 44.5493 244.379 43.984C243.889 43.4187 243.643 42.6773 243.643 41.76C243.643 40.8427 243.889 40.1013 244.379 39.536C244.87 38.9707 245.515 38.688 246.315 38.688C247.115 38.688 247.761 38.9707 248.251 39.536C248.753 40.0907 249.003 40.832 249.003 41.76C249.003 42.688 248.753 43.4347 248.251 44C247.761 44.5547 247.115 44.832 246.315 44.832ZM253.035 38.8H254.603L246.955 50H245.387L253.035 38.8ZM246.315 43.712C246.753 43.712 247.089 43.5413 247.323 43.2C247.569 42.8587 247.691 42.3787 247.691 41.76C247.691 41.1413 247.569 40.6613 247.323 40.32C247.089 39.9787 246.753 39.808 246.315 39.808C245.899 39.808 245.563 39.984 245.307 40.336C245.062 40.6773 244.939 41.152 244.939 41.76C244.939 42.368 245.062 42.848 245.307 43.2C245.563 43.5413 245.899 43.712 246.315 43.712ZM253.659 50.112C252.859 50.112 252.214 49.8293 251.723 49.264C251.233 48.6987 250.987 47.9573 250.987 47.04C250.987 46.1227 251.233 45.3813 251.723 44.816C252.214 44.2507 252.859 43.968 253.659 43.968C254.459 43.968 255.105 44.2507 255.595 44.816C256.097 45.3813 256.347 46.1227 256.347 47.04C256.347 47.9573 256.097 48.6987 255.595 49.264C255.105 49.8293 254.459 50.112 253.659 50.112ZM253.659 48.992C254.086 48.992 254.422 48.8213 254.667 48.48C254.913 48.128 255.035 47.648 255.035 47.04C255.035 46.432 254.913 45.9573 254.667 45.616C254.422 45.264 254.086 45.088 253.659 45.088C253.233 45.088 252.897 45.2587 252.651 45.6C252.406 45.9413 252.283 46.4213 252.283 47.04C252.283 47.6587 252.406 48.1387 252.651 48.48C252.897 48.8213 253.233 48.992 253.659 48.992Z" fill="#333333"/>
</svg>
