<svg width="432" height="432" viewBox="0 0 432 432" fill="none" xmlns="http://www.w3.org/2000/svg">
<path d="M213.892 0C192.009 0.213525 170.284 3.75162 149.464 10.4931L183.736 112.924C193.505 109.866 203.658 108.213 213.892 108.013V0Z" fill="#E8A838"/>
<path d="M145.466 11.8311C137.29 14.6559 129.29 17.9695 121.511 21.7538L169.705 118.418C172.978 116.865 176.326 115.478 179.738 114.262L145.466 11.8311Z" fill="#8D7466"/>
<path d="M117.74 23.6343C98.2509 33.5901 80.3878 46.45 64.7627 61.7735L141.137 138.15C148.515 131.055 156.864 125.044 165.934 120.299L117.74 23.6343Z" fill="#BD772F"/>
<path d="M61.7824 64.7534C46.4592 80.3789 33.5996 98.2424 23.644 117.732L120.306 165.927C125.051 156.857 131.062 148.508 138.157 141.13L61.7824 64.7534Z" fill="#EF792B"/>
<path d="M21.7627 121.505C8.30889 149.162 0.91634 179.374 0.0795898 210.118L108.073 212.004C108.615 197.346 112.137 182.952 118.425 169.7L21.7627 121.505Z" fill="#FFCA64"/>
<path d="M0.00639798 214.332C-0.196127 240.646 4.41106 266.775 13.601 291.433L114.437 252.724C110.204 241.017 108.026 228.666 108 216.217L0.00639798 214.332Z" fill="#9D8761"/>
<path d="M15.1118 295.368C23.1536 315.722 34.2419 334.736 47.9969 351.758L131.34 283.054C124.985 275.03 119.802 266.143 115.948 256.66L15.1118 295.368Z" fill="#DDB798"/>
<path d="M50.6772 355.01C79.1076 388.822 117.221 413.104 159.88 424.582L186.923 320.009C166.343 314.256 147.932 302.527 134.021 286.306L50.6772 355.01Z" fill="#F6E5CF"/>
<path d="M163.961 425.637C206.835 436.28 251.942 433.521 293.2 417.732L253.614 317.235C233.583 324.678 211.794 326.011 191.005 321.065L163.961 425.637Z" fill="#BAA895"/>
<path d="M297.121 416.188C343.4 397.434 381.753 363.224 405.652 319.38C429.552 275.535 437.523 224.764 428.209 175.705C418.895 126.645 392.872 82.3284 354.566 50.2941C316.261 18.2599 268.04 0.487201 218.107 0V108.013C242.889 108.497 266.75 117.49 285.686 133.484C304.623 149.477 317.481 171.498 322.105 195.85C326.728 220.202 322.834 245.403 311.077 267.224C299.32 289.045 280.415 306.158 257.535 315.691L297.121 416.188Z" fill="#FFBD40"/>
<path d="M185.044 39.2071C186.031 39.2071 186.761 39.4004 187.234 39.7871C187.707 40.1671 187.944 40.6871 187.944 41.3471C187.944 41.7671 187.841 42.1471 187.634 42.4871C187.427 42.8271 187.117 43.0971 186.704 43.2971C186.291 43.4971 185.781 43.5971 185.174 43.5971C184.674 43.5971 184.191 43.5271 183.724 43.3871C183.257 43.2404 182.864 43.0404 182.544 42.7871L183.094 41.7771C183.354 41.9904 183.664 42.1604 184.024 42.2871C184.391 42.4071 184.767 42.4671 185.154 42.4671C185.614 42.4671 185.974 42.3737 186.234 42.1871C186.501 41.9937 186.634 41.7304 186.634 41.3971C186.634 41.0371 186.491 40.7671 186.204 40.5871C185.924 40.4004 185.441 40.3071 184.754 40.3071H183.064L183.424 36.4971H187.534V37.5871H184.524L184.374 39.2071H185.044ZM190.156 40.2671C189.656 40.2671 189.253 40.0904 188.946 39.7371C188.64 39.3837 188.486 38.9204 188.486 38.3471C188.486 37.7737 188.64 37.3104 188.946 36.9571C189.253 36.6037 189.656 36.4271 190.156 36.4271C190.656 36.4271 191.06 36.6037 191.366 36.9571C191.68 37.3037 191.836 37.7671 191.836 38.3471C191.836 38.9271 191.68 39.3937 191.366 39.7471C191.06 40.0937 190.656 40.2671 190.156 40.2671ZM194.356 36.4971H195.336L190.556 43.4971H189.576L194.356 36.4971ZM190.156 39.5671C190.43 39.5671 190.64 39.4604 190.786 39.2471C190.94 39.0337 191.016 38.7337 191.016 38.3471C191.016 37.9604 190.94 37.6604 190.786 37.4471C190.64 37.2337 190.43 37.1271 190.156 37.1271C189.896 37.1271 189.686 37.2371 189.526 37.4571C189.373 37.6704 189.296 37.9671 189.296 38.3471C189.296 38.7271 189.373 39.0271 189.526 39.2471C189.686 39.4604 189.896 39.5671 190.156 39.5671ZM194.746 43.5671C194.246 43.5671 193.843 43.3904 193.536 43.0371C193.23 42.6837 193.076 42.2204 193.076 41.6471C193.076 41.0737 193.23 40.6104 193.536 40.2571C193.843 39.9037 194.246 39.7271 194.746 39.7271C195.246 39.7271 195.65 39.9037 195.956 40.2571C196.27 40.6104 196.426 41.0737 196.426 41.6471C196.426 42.2204 196.27 42.6837 195.956 43.0371C195.65 43.3904 195.246 43.5671 194.746 43.5671ZM194.746 42.8671C195.013 42.8671 195.223 42.7604 195.376 42.5471C195.53 42.3271 195.606 42.0271 195.606 41.6471C195.606 41.2671 195.53 40.9704 195.376 40.7571C195.223 40.5371 195.013 40.4271 194.746 40.4271C194.48 40.4271 194.27 40.5337 194.116 40.7471C193.963 40.9604 193.886 41.2604 193.886 41.6471C193.886 42.0337 193.963 42.3337 194.116 42.5471C194.27 42.7604 194.48 42.8671 194.746 42.8671Z" fill="#333333"/>
<path d="M146.882 53.6217V54.7217H141.722V53.8517L144.502 51.2117C144.815 50.9117 145.025 50.6517 145.132 50.4317C145.245 50.205 145.302 49.9817 145.302 49.7617C145.302 49.435 145.192 49.185 144.972 49.0117C144.752 48.8383 144.428 48.7517 144.002 48.7517C143.288 48.7517 142.742 48.995 142.362 49.4817L141.452 48.7817C141.725 48.415 142.092 48.1317 142.552 47.9317C143.018 47.725 143.538 47.6217 144.112 47.6217C144.872 47.6217 145.478 47.8017 145.932 48.1617C146.385 48.5217 146.612 49.0117 146.612 49.6317C146.612 50.0117 146.532 50.3683 146.372 50.7017C146.212 51.035 145.905 51.415 145.452 51.8417L143.582 53.6217H146.882ZM149.29 51.4917C148.79 51.4917 148.386 51.315 148.08 50.9617C147.773 50.6083 147.62 50.145 147.62 49.5717C147.62 48.9983 147.773 48.535 148.08 48.1817C148.386 47.8283 148.79 47.6517 149.29 47.6517C149.79 47.6517 150.193 47.8283 150.5 48.1817C150.813 48.5283 150.97 48.9917 150.97 49.5717C150.97 50.1517 150.813 50.6183 150.5 50.9717C150.193 51.3183 149.79 51.4917 149.29 51.4917ZM153.49 47.7217H154.47L149.69 54.7217H148.71L153.49 47.7217ZM149.29 50.7917C149.563 50.7917 149.773 50.685 149.92 50.4717C150.073 50.2583 150.15 49.9583 150.15 49.5717C150.15 49.185 150.073 48.885 149.92 48.6717C149.773 48.4583 149.563 48.3517 149.29 48.3517C149.03 48.3517 148.82 48.4617 148.66 48.6817C148.506 48.895 148.43 49.1917 148.43 49.5717C148.43 49.9517 148.506 50.2517 148.66 50.4717C148.82 50.685 149.03 50.7917 149.29 50.7917ZM153.88 54.7917C153.38 54.7917 152.976 54.615 152.67 54.2617C152.363 53.9083 152.21 53.445 152.21 52.8717C152.21 52.2983 152.363 51.835 152.67 51.4817C152.976 51.1283 153.38 50.9517 153.88 50.9517C154.38 50.9517 154.783 51.1283 155.09 51.4817C155.403 51.835 155.56 52.2983 155.56 52.8717C155.56 53.445 155.403 53.9083 155.09 54.2617C154.783 54.615 154.38 54.7917 153.88 54.7917ZM153.88 54.0917C154.146 54.0917 154.356 53.985 154.51 53.7717C154.663 53.5517 154.74 53.2517 154.74 52.8717C154.74 52.4917 154.663 52.195 154.51 51.9817C154.356 51.7617 154.146 51.6517 153.88 51.6517C153.613 51.6517 153.403 51.7583 153.25 51.9717C153.096 52.185 153.02 52.485 153.02 52.8717C153.02 53.2583 153.096 53.5583 153.25 53.7717C153.403 53.985 153.613 54.0917 153.88 54.0917Z" fill="#333333"/>
<path d="M109.436 70.6255C110.422 70.6255 111.152 70.8189 111.626 71.2055C112.099 71.5855 112.336 72.1055 112.336 72.7655C112.336 73.1855 112.232 73.5655 112.026 73.9055C111.819 74.2455 111.509 74.5155 111.096 74.7155C110.682 74.9155 110.172 75.0155 109.566 75.0155C109.066 75.0155 108.582 74.9455 108.116 74.8055C107.649 74.6589 107.256 74.4589 106.936 74.2055L107.486 73.1955C107.746 73.4089 108.056 73.5789 108.416 73.7055C108.782 73.8255 109.159 73.8855 109.546 73.8855C110.006 73.8855 110.366 73.7922 110.626 73.6055C110.892 73.4122 111.026 73.1489 111.026 72.8155C111.026 72.4555 110.882 72.1855 110.596 72.0055C110.316 71.8189 109.832 71.7255 109.146 71.7255H107.456L107.816 67.9155H111.926V69.0055H108.916L108.766 70.6255H109.436ZM114.548 71.6855C114.048 71.6855 113.645 71.5089 113.338 71.1555C113.031 70.8022 112.878 70.3389 112.878 69.7655C112.878 69.1922 113.031 68.7289 113.338 68.3755C113.645 68.0222 114.048 67.8455 114.548 67.8455C115.048 67.8455 115.451 68.0222 115.758 68.3755C116.071 68.7222 116.228 69.1855 116.228 69.7655C116.228 70.3455 116.071 70.8122 115.758 71.1655C115.451 71.5122 115.048 71.6855 114.548 71.6855ZM118.748 67.9155H119.728L114.948 74.9155H113.968L118.748 67.9155ZM114.548 70.9855C114.821 70.9855 115.031 70.8789 115.178 70.6655C115.331 70.4522 115.408 70.1522 115.408 69.7655C115.408 69.3789 115.331 69.0789 115.178 68.8655C115.031 68.6522 114.821 68.5455 114.548 68.5455C114.288 68.5455 114.078 68.6555 113.918 68.8755C113.765 69.0889 113.688 69.3855 113.688 69.7655C113.688 70.1455 113.765 70.4455 113.918 70.6655C114.078 70.8789 114.288 70.9855 114.548 70.9855ZM119.138 74.9855C118.638 74.9855 118.235 74.8089 117.928 74.4555C117.621 74.1022 117.468 73.6389 117.468 73.0655C117.468 72.4922 117.621 72.0289 117.928 71.6755C118.235 71.3222 118.638 71.1455 119.138 71.1455C119.638 71.1455 120.041 71.3222 120.348 71.6755C120.661 72.0289 120.818 72.4922 120.818 73.0655C120.818 73.6389 120.661 74.1022 120.348 74.4555C120.041 74.8089 119.638 74.9855 119.138 74.9855ZM119.138 74.2855C119.405 74.2855 119.615 74.1789 119.768 73.9655C119.921 73.7455 119.998 73.4455 119.998 73.0655C119.998 72.6855 119.921 72.3889 119.768 72.1755C119.615 71.9555 119.405 71.8455 119.138 71.8455C118.871 71.8455 118.661 71.9522 118.508 72.1655C118.355 72.3789 118.278 72.6789 118.278 73.0655C118.278 73.4522 118.355 73.7522 118.508 73.9655C118.661 74.1789 118.871 74.2855 119.138 74.2855Z" fill="#333333"/>
<path d="M73.6085 113.453C74.5952 113.453 75.3252 113.646 75.7985 114.033C76.2718 114.413 76.5085 114.933 76.5085 115.593C76.5085 116.013 76.4052 116.393 76.1985 116.733C75.9918 117.073 75.6818 117.343 75.2685 117.543C74.8552 117.743 74.3452 117.843 73.7385 117.843C73.2385 117.843 72.7552 117.773 72.2885 117.633C71.8218 117.486 71.4285 117.286 71.1085 117.033L71.6585 116.023C71.9185 116.236 72.2285 116.406 72.5885 116.533C72.9552 116.653 73.3318 116.713 73.7185 116.713C74.1785 116.713 74.5385 116.62 74.7985 116.433C75.0652 116.24 75.1985 115.976 75.1985 115.643C75.1985 115.283 75.0552 115.013 74.7685 114.833C74.4885 114.646 74.0052 114.553 73.3185 114.553H71.6285L71.9885 110.743H76.0985V111.833H73.0885L72.9385 113.453H73.6085ZM78.7207 114.513C78.2207 114.513 77.8174 114.336 77.5107 113.983C77.204 113.63 77.0507 113.166 77.0507 112.593C77.0507 112.02 77.204 111.556 77.5107 111.203C77.8174 110.85 78.2207 110.673 78.7207 110.673C79.2207 110.673 79.624 110.85 79.9307 111.203C80.244 111.55 80.4007 112.013 80.4007 112.593C80.4007 113.173 80.244 113.64 79.9307 113.993C79.624 114.34 79.2207 114.513 78.7207 114.513ZM82.9207 110.743H83.9007L79.1207 117.743H78.1407L82.9207 110.743ZM78.7207 113.813C78.994 113.813 79.204 113.706 79.3507 113.493C79.504 113.28 79.5807 112.98 79.5807 112.593C79.5807 112.206 79.504 111.906 79.3507 111.693C79.204 111.48 78.994 111.373 78.7207 111.373C78.4607 111.373 78.2507 111.483 78.0907 111.703C77.9374 111.916 77.8607 112.213 77.8607 112.593C77.8607 112.973 77.9374 113.273 78.0907 113.493C78.2507 113.706 78.4607 113.813 78.7207 113.813ZM83.3107 117.813C82.8107 117.813 82.4074 117.636 82.1007 117.283C81.794 116.93 81.6407 116.466 81.6407 115.893C81.6407 115.32 81.794 114.856 82.1007 114.503C82.4074 114.15 82.8107 113.973 83.3107 113.973C83.8107 113.973 84.214 114.15 84.5207 114.503C84.834 114.856 84.9907 115.32 84.9907 115.893C84.9907 116.466 84.834 116.93 84.5207 117.283C84.214 117.636 83.8107 117.813 83.3107 117.813ZM83.3107 117.113C83.5774 117.113 83.7874 117.006 83.9407 116.793C84.094 116.573 84.1707 116.273 84.1707 115.893C84.1707 115.513 84.094 115.216 83.9407 115.003C83.7874 114.783 83.5774 114.673 83.3107 114.673C83.044 114.673 82.834 114.78 82.6807 114.993C82.5274 115.206 82.4507 115.506 82.4507 115.893C82.4507 116.28 82.5274 116.58 82.6807 116.793C82.834 117.006 83.044 117.113 83.3107 117.113Z" fill="#333333"/>
<path d="M49.6219 172.889V173.759L46.9019 179.889H45.5119L48.1419 173.989H45.3919V175.179H44.1819V172.889H49.6219ZM52.0347 176.659C51.5347 176.659 51.1313 176.482 50.8247 176.129C50.518 175.775 50.3647 175.312 50.3647 174.739C50.3647 174.165 50.518 173.702 50.8247 173.349C51.1313 172.995 51.5347 172.819 52.0347 172.819C52.5347 172.819 52.938 172.995 53.2447 173.349C53.558 173.695 53.7147 174.159 53.7147 174.739C53.7147 175.319 53.558 175.785 53.2447 176.139C52.938 176.485 52.5347 176.659 52.0347 176.659ZM56.2347 172.889H57.2147L52.4347 179.889H51.4547L56.2347 172.889ZM52.0347 175.959C52.308 175.959 52.518 175.852 52.6647 175.639C52.818 175.425 52.8947 175.125 52.8947 174.739C52.8947 174.352 52.818 174.052 52.6647 173.839C52.518 173.625 52.308 173.519 52.0347 173.519C51.7747 173.519 51.5647 173.629 51.4047 173.849C51.2513 174.062 51.1747 174.359 51.1747 174.739C51.1747 175.119 51.2513 175.419 51.4047 175.639C51.5647 175.852 51.7747 175.959 52.0347 175.959ZM56.6247 179.959C56.1247 179.959 55.7213 179.782 55.4147 179.429C55.108 179.075 54.9547 178.612 54.9547 178.039C54.9547 177.465 55.108 177.002 55.4147 176.649C55.7213 176.295 56.1247 176.119 56.6247 176.119C57.1247 176.119 57.528 176.295 57.8347 176.649C58.148 177.002 58.3047 177.465 58.3047 178.039C58.3047 178.612 58.148 179.075 57.8347 179.429C57.528 179.782 57.1247 179.959 56.6247 179.959ZM56.6247 179.259C56.8913 179.259 57.1013 179.152 57.2547 178.939C57.408 178.719 57.4847 178.419 57.4847 178.039C57.4847 177.659 57.408 177.362 57.2547 177.149C57.1013 176.929 56.8913 176.819 56.6247 176.819C56.358 176.819 56.148 176.925 55.9947 177.139C55.8413 177.352 55.7647 177.652 55.7647 178.039C55.7647 178.425 55.8413 178.725 55.9947 178.939C56.148 179.152 56.358 179.259 56.6247 179.259Z" fill="#333333"/>
<path d="M46.369 244.206C46.829 244.206 47.2424 244.296 47.609 244.476C47.9757 244.65 48.2624 244.9 48.469 245.226C48.6757 245.553 48.779 245.93 48.779 246.356C48.779 246.81 48.6657 247.21 48.439 247.556C48.2124 247.896 47.9057 248.16 47.519 248.346C47.1324 248.533 46.699 248.626 46.219 248.626C45.259 248.626 44.5124 248.326 43.979 247.726C43.4524 247.126 43.189 246.266 43.189 245.146C43.189 244.36 43.3324 243.69 43.619 243.136C43.9057 242.576 44.3057 242.153 44.819 241.866C45.339 241.573 45.939 241.426 46.619 241.426C46.979 241.426 47.3157 241.466 47.629 241.546C47.949 241.62 48.2257 241.73 48.459 241.876L47.979 242.856C47.6324 242.63 47.189 242.516 46.649 242.516C45.9757 242.516 45.449 242.723 45.069 243.136C44.689 243.55 44.499 244.146 44.499 244.926V244.936C44.7057 244.696 44.969 244.516 45.289 244.396C45.609 244.27 45.969 244.206 46.369 244.206ZM46.149 247.606C46.5557 247.606 46.8857 247.5 47.139 247.286C47.3924 247.066 47.519 246.776 47.519 246.416C47.519 246.05 47.3924 245.76 47.139 245.546C46.8857 245.333 46.5457 245.226 46.119 245.226C45.699 245.226 45.3557 245.34 45.089 245.566C44.829 245.793 44.699 246.08 44.699 246.426C44.699 246.766 44.8257 247.05 45.079 247.276C45.339 247.496 45.6957 247.606 46.149 247.606ZM50.8232 245.296C50.3232 245.296 49.9199 245.12 49.6132 244.766C49.3066 244.413 49.1532 243.95 49.1532 243.376C49.1532 242.803 49.3066 242.34 49.6132 241.986C49.9199 241.633 50.3232 241.456 50.8232 241.456C51.3232 241.456 51.7266 241.633 52.0332 241.986C52.3466 242.333 52.5032 242.796 52.5032 243.376C52.5032 243.956 52.3466 244.423 52.0332 244.776C51.7266 245.123 51.3232 245.296 50.8232 245.296ZM55.0232 241.526H56.0032L51.2232 248.526H50.2432L55.0232 241.526ZM50.8232 244.596C51.0966 244.596 51.3066 244.49 51.4532 244.276C51.6066 244.063 51.6832 243.763 51.6832 243.376C51.6832 242.99 51.6066 242.69 51.4532 242.476C51.3066 242.263 51.0966 242.156 50.8232 242.156C50.5632 242.156 50.3532 242.266 50.1932 242.486C50.0399 242.7 49.9632 242.996 49.9632 243.376C49.9632 243.756 50.0399 244.056 50.1932 244.276C50.3532 244.49 50.5632 244.596 50.8232 244.596ZM55.4132 248.596C54.9132 248.596 54.5099 248.42 54.2032 248.066C53.8966 247.713 53.7432 247.25 53.7432 246.676C53.7432 246.103 53.8966 245.64 54.2032 245.286C54.5099 244.933 54.9132 244.756 55.4132 244.756C55.9132 244.756 56.3166 244.933 56.6232 245.286C56.9366 245.64 57.0932 246.103 57.0932 246.676C57.0932 247.25 56.9366 247.713 56.6232 248.066C56.3166 248.42 55.9132 248.596 55.4132 248.596ZM55.4132 247.896C55.6799 247.896 55.8899 247.79 56.0432 247.576C56.1966 247.356 56.2732 247.056 56.2732 246.676C56.2732 246.296 56.1966 246 56.0432 245.786C55.8899 245.566 55.6799 245.456 55.4132 245.456C55.1466 245.456 54.9366 245.563 54.7832 245.776C54.6299 245.99 54.5532 246.29 54.5532 246.676C54.5532 247.063 54.6299 247.363 54.7832 247.576C54.9366 247.79 55.1466 247.896 55.4132 247.896Z" fill="#333333"/>
<path d="M65.1427 297.717C66.1294 297.717 66.8594 297.911 67.3327 298.297C67.806 298.677 68.0427 299.197 68.0427 299.857C68.0427 300.277 67.9394 300.657 67.7327 300.997C67.526 301.337 67.216 301.607 66.8027 301.807C66.3894 302.007 65.8794 302.107 65.2727 302.107C64.7727 302.107 64.2894 302.037 63.8227 301.897C63.356 301.751 62.9627 301.551 62.6427 301.297L63.1927 300.287C63.4527 300.501 63.7627 300.671 64.1227 300.797C64.4894 300.917 64.866 300.977 65.2527 300.977C65.7127 300.977 66.0727 300.884 66.3327 300.697C66.5994 300.504 66.7327 300.241 66.7327 299.907C66.7327 299.547 66.5894 299.277 66.3027 299.097C66.0227 298.911 65.5394 298.817 64.8527 298.817H63.1627L63.5227 295.007H67.6327V296.097H64.6227L64.4727 297.717H65.1427ZM70.2549 298.777C69.7549 298.777 69.3515 298.601 69.0449 298.247C68.7382 297.894 68.5849 297.431 68.5849 296.857C68.5849 296.284 68.7382 295.821 69.0449 295.467C69.3515 295.114 69.7549 294.937 70.2549 294.937C70.7549 294.937 71.1582 295.114 71.4649 295.467C71.7782 295.814 71.9349 296.277 71.9349 296.857C71.9349 297.437 71.7782 297.904 71.4649 298.257C71.1582 298.604 70.7549 298.777 70.2549 298.777ZM74.4549 295.007H75.4349L70.6549 302.007H69.6749L74.4549 295.007ZM70.2549 298.077C70.5282 298.077 70.7382 297.971 70.8849 297.757C71.0382 297.544 71.1149 297.244 71.1149 296.857C71.1149 296.471 71.0382 296.171 70.8849 295.957C70.7382 295.744 70.5282 295.637 70.2549 295.637C69.9949 295.637 69.7849 295.747 69.6249 295.967C69.4715 296.181 69.3949 296.477 69.3949 296.857C69.3949 297.237 69.4715 297.537 69.6249 297.757C69.7849 297.971 69.9949 298.077 70.2549 298.077ZM74.8449 302.077C74.3449 302.077 73.9415 301.901 73.6349 301.547C73.3282 301.194 73.1749 300.731 73.1749 300.157C73.1749 299.584 73.3282 299.121 73.6349 298.767C73.9415 298.414 74.3449 298.237 74.8449 298.237C75.3449 298.237 75.7482 298.414 76.0549 298.767C76.3682 299.121 76.5249 299.584 76.5249 300.157C76.5249 300.731 76.3682 301.194 76.0549 301.547C75.7482 301.901 75.3449 302.077 74.8449 302.077ZM74.8449 301.377C75.1116 301.377 75.3216 301.271 75.4749 301.057C75.6282 300.837 75.7049 300.537 75.7049 300.157C75.7049 299.777 75.6282 299.481 75.4749 299.267C75.3216 299.047 75.1116 298.937 74.8449 298.937C74.5782 298.937 74.3682 299.044 74.2149 299.257C74.0615 299.471 73.9849 299.771 73.9849 300.157C73.9849 300.544 74.0615 300.844 74.2149 301.057C74.3682 301.271 74.5782 301.377 74.8449 301.377Z" fill="#333333"/>
<path d="M118.484 350.026V357.026H117.184V351.116H115.704V350.026H118.484ZM122.792 357.126C122.232 357.126 121.732 356.986 121.292 356.706C120.852 356.42 120.505 356.006 120.252 355.466C119.999 354.92 119.872 354.273 119.872 353.526C119.872 352.78 119.999 352.136 120.252 351.596C120.505 351.05 120.852 350.636 121.292 350.356C121.732 350.07 122.232 349.926 122.792 349.926C123.352 349.926 123.852 350.07 124.292 350.356C124.739 350.636 125.089 351.05 125.342 351.596C125.595 352.136 125.722 352.78 125.722 353.526C125.722 354.273 125.595 354.92 125.342 355.466C125.089 356.006 124.739 356.42 124.292 356.706C123.852 356.986 123.352 357.126 122.792 357.126ZM122.792 355.996C123.292 355.996 123.685 355.79 123.972 355.376C124.265 354.963 124.412 354.346 124.412 353.526C124.412 352.706 124.265 352.09 123.972 351.676C123.685 351.263 123.292 351.056 122.792 351.056C122.299 351.056 121.905 351.263 121.612 351.676C121.325 352.09 121.182 352.706 121.182 353.526C121.182 354.346 121.325 354.963 121.612 355.376C121.905 355.79 122.299 355.996 122.792 355.996ZM128.161 353.796C127.661 353.796 127.257 353.62 126.951 353.266C126.644 352.913 126.491 352.45 126.491 351.876C126.491 351.303 126.644 350.84 126.951 350.486C127.257 350.133 127.661 349.956 128.161 349.956C128.661 349.956 129.064 350.133 129.371 350.486C129.684 350.833 129.841 351.296 129.841 351.876C129.841 352.456 129.684 352.923 129.371 353.276C129.064 353.623 128.661 353.796 128.161 353.796ZM132.361 350.026H133.341L128.561 357.026H127.581L132.361 350.026ZM128.161 353.096C128.434 353.096 128.644 352.99 128.791 352.776C128.944 352.563 129.021 352.263 129.021 351.876C129.021 351.49 128.944 351.19 128.791 350.976C128.644 350.763 128.434 350.656 128.161 350.656C127.901 350.656 127.691 350.766 127.531 350.986C127.377 351.2 127.301 351.496 127.301 351.876C127.301 352.256 127.377 352.556 127.531 352.776C127.691 352.99 127.901 353.096 128.161 353.096ZM132.751 357.096C132.251 357.096 131.847 356.92 131.541 356.566C131.234 356.213 131.081 355.75 131.081 355.176C131.081 354.603 131.234 354.14 131.541 353.786C131.847 353.433 132.251 353.256 132.751 353.256C133.251 353.256 133.654 353.433 133.961 353.786C134.274 354.14 134.431 354.603 134.431 355.176C134.431 355.75 134.274 356.213 133.961 356.566C133.654 356.92 133.251 357.096 132.751 357.096ZM132.751 356.396C133.017 356.396 133.227 356.29 133.381 356.076C133.534 355.856 133.611 355.556 133.611 355.176C133.611 354.796 133.534 354.5 133.381 354.286C133.227 354.066 133.017 353.956 132.751 353.956C132.484 353.956 132.274 354.063 132.121 354.276C131.967 354.49 131.891 354.79 131.891 355.176C131.891 355.563 131.967 355.863 132.121 356.076C132.274 356.29 132.484 356.396 132.751 356.396Z" fill="#333333"/>
<path d="M220.416 375.096V382.096H219.116V376.186H217.636V375.096H220.416ZM224.724 382.196C224.164 382.196 223.664 382.056 223.224 381.776C222.784 381.489 222.438 381.076 222.184 380.536C221.931 379.989 221.804 379.342 221.804 378.596C221.804 377.849 221.931 377.206 222.184 376.666C222.438 376.119 222.784 375.706 223.224 375.426C223.664 375.139 224.164 374.996 224.724 374.996C225.284 374.996 225.784 375.139 226.224 375.426C226.671 375.706 227.021 376.119 227.274 376.666C227.528 377.206 227.654 377.849 227.654 378.596C227.654 379.342 227.528 379.989 227.274 380.536C227.021 381.076 226.671 381.489 226.224 381.776C225.784 382.056 225.284 382.196 224.724 382.196ZM224.724 381.066C225.224 381.066 225.618 380.859 225.904 380.446C226.198 380.032 226.344 379.416 226.344 378.596C226.344 377.776 226.198 377.159 225.904 376.746C225.618 376.332 225.224 376.126 224.724 376.126C224.231 376.126 223.838 376.332 223.544 376.746C223.258 377.159 223.114 377.776 223.114 378.596C223.114 379.416 223.258 380.032 223.544 380.446C223.838 380.859 224.231 381.066 224.724 381.066ZM230.093 378.866C229.593 378.866 229.189 378.689 228.883 378.336C228.576 377.982 228.423 377.519 228.423 376.946C228.423 376.372 228.576 375.909 228.883 375.556C229.189 375.202 229.593 375.026 230.093 375.026C230.593 375.026 230.996 375.202 231.303 375.556C231.616 375.902 231.773 376.366 231.773 376.946C231.773 377.526 231.616 377.992 231.303 378.346C230.996 378.692 230.593 378.866 230.093 378.866ZM234.293 375.096H235.273L230.493 382.096H229.513L234.293 375.096ZM230.093 378.166C230.366 378.166 230.576 378.059 230.723 377.846C230.876 377.632 230.953 377.332 230.953 376.946C230.953 376.559 230.876 376.259 230.723 376.046C230.576 375.832 230.366 375.726 230.093 375.726C229.833 375.726 229.623 375.836 229.463 376.056C229.309 376.269 229.233 376.566 229.233 376.946C229.233 377.326 229.309 377.626 229.463 377.846C229.623 378.059 229.833 378.166 230.093 378.166ZM234.683 382.166C234.183 382.166 233.779 381.989 233.473 381.636C233.166 381.282 233.013 380.819 233.013 380.246C233.013 379.672 233.166 379.209 233.473 378.856C233.779 378.502 234.183 378.326 234.683 378.326C235.183 378.326 235.586 378.502 235.893 378.856C236.206 379.209 236.363 379.672 236.363 380.246C236.363 380.819 236.206 381.282 235.893 381.636C235.586 381.989 235.183 382.166 234.683 382.166ZM234.683 381.466C234.949 381.466 235.159 381.359 235.313 381.146C235.466 380.926 235.543 380.626 235.543 380.246C235.543 379.866 235.466 379.569 235.313 379.356C235.159 379.136 234.949 379.026 234.683 379.026C234.416 379.026 234.206 379.132 234.053 379.346C233.899 379.559 233.823 379.859 233.823 380.246C233.823 380.632 233.899 380.932 234.053 381.146C234.206 381.359 234.416 381.466 234.683 381.466Z" fill="#333333"/>
<path d="M372.521 196.587H371.281V198.177H370.021V196.587H366.181V195.687L369.631 191.177H371.021L367.771 195.487H370.061V194.077H371.281V195.487H372.521V196.587ZM375.229 193.887C376.216 193.887 376.946 194.08 377.419 194.467C377.892 194.847 378.129 195.367 378.129 196.027C378.129 196.447 378.026 196.827 377.819 197.167C377.612 197.507 377.302 197.777 376.889 197.977C376.476 198.177 375.966 198.277 375.359 198.277C374.859 198.277 374.376 198.207 373.909 198.067C373.442 197.92 373.049 197.72 372.729 197.467L373.279 196.457C373.539 196.67 373.849 196.84 374.209 196.967C374.576 197.087 374.952 197.147 375.339 197.147C375.799 197.147 376.159 197.053 376.419 196.867C376.686 196.673 376.819 196.41 376.819 196.077C376.819 195.717 376.676 195.447 376.389 195.267C376.109 195.08 375.626 194.987 374.939 194.987H373.249L373.609 191.177H377.719V192.267H374.709L374.559 193.887H375.229ZM380.341 194.947C379.841 194.947 379.438 194.77 379.131 194.417C378.825 194.063 378.671 193.6 378.671 193.027C378.671 192.453 378.825 191.99 379.131 191.637C379.438 191.283 379.841 191.107 380.341 191.107C380.841 191.107 381.245 191.283 381.551 191.637C381.865 191.983 382.021 192.447 382.021 193.027C382.021 193.607 381.865 194.073 381.551 194.427C381.245 194.773 380.841 194.947 380.341 194.947ZM384.541 191.177H385.521L380.741 198.177H379.761L384.541 191.177ZM380.341 194.247C380.615 194.247 380.825 194.14 380.971 193.927C381.125 193.713 381.201 193.413 381.201 193.027C381.201 192.64 381.125 192.34 380.971 192.127C380.825 191.913 380.615 191.807 380.341 191.807C380.081 191.807 379.871 191.917 379.711 192.137C379.558 192.35 379.481 192.647 379.481 193.027C379.481 193.407 379.558 193.707 379.711 193.927C379.871 194.14 380.081 194.247 380.341 194.247ZM384.931 198.247C384.431 198.247 384.028 198.07 383.721 197.717C383.415 197.363 383.261 196.9 383.261 196.327C383.261 195.753 383.415 195.29 383.721 194.937C384.028 194.583 384.431 194.407 384.931 194.407C385.431 194.407 385.835 194.583 386.141 194.937C386.455 195.29 386.611 195.753 386.611 196.327C386.611 196.9 386.455 197.363 386.141 197.717C385.835 198.07 385.431 198.247 384.931 198.247ZM384.931 197.547C385.198 197.547 385.408 197.44 385.561 197.227C385.715 197.007 385.791 196.707 385.791 196.327C385.791 195.947 385.715 195.65 385.561 195.437C385.408 195.217 385.198 195.107 384.931 195.107C384.665 195.107 384.455 195.213 384.301 195.427C384.148 195.64 384.071 195.94 384.071 196.327C384.071 196.713 384.148 197.013 384.301 197.227C384.455 197.44 384.665 197.547 384.931 197.547Z" fill="#333333"/>
</svg>
