<svg width="161" height="212" viewBox="0 0 161 212" fill="none" xmlns="http://www.w3.org/2000/svg">
<g clip-path="url(#clip0_35_6428)" filter="url(#filter0_d_35_6428)">
<path fill-rule="evenodd" clip-rule="evenodd" d="M40.7004 188.031V189.449L47.145 190.386L49.0007 189.376L53.7273 175.324L53.1669 171.949L50.59 171.745L49.4968 173.333L40.7004 188.031Z" fill="url(#paint0_radial_35_6428)"/>
<path opacity="0.5" fill-rule="evenodd" clip-rule="evenodd" d="M47.145 190.386L53.167 171.949L53.7274 175.324L49.0008 189.376L47.145 190.386Z" fill="url(#paint1_radial_35_6428)"/>
<path fill-rule="evenodd" clip-rule="evenodd" d="M40.7004 189.449L50.59 171.745L49.4968 173.333L40.7004 188.031V189.449Z" fill="url(#paint2_radial_35_6428)"/>
<path fill-rule="evenodd" clip-rule="evenodd" d="M63.4056 188.128L63.7869 189.949L69.8502 190.488L71.7059 189.478L71.8667 175.426L71.3063 172.051L67.5902 171.847L66.8737 173.435L63.4056 188.128Z" fill="url(#paint3_radial_35_6428)"/>
<path opacity="0.5" fill-rule="evenodd" clip-rule="evenodd" d="M69.8502 190.488L71.3063 172.051L71.8667 175.426L71.706 189.478L69.8502 190.488Z" fill="url(#paint4_radial_35_6428)"/>
<path fill-rule="evenodd" clip-rule="evenodd" d="M63.7869 189.949L67.5902 171.847L66.8736 173.435L63.4056 188.128L63.7869 189.949Z" fill="url(#paint5_radial_35_6428)"/>
<path fill-rule="evenodd" clip-rule="evenodd" d="M118.448 188.031V189.449L112.004 190.386L110.148 189.376L105.04 175.324L105.601 171.949L108.182 171.745L109.275 173.333L118.448 188.031Z" fill="url(#paint6_radial_35_6428)"/>
<path opacity="0.5" fill-rule="evenodd" clip-rule="evenodd" d="M112.004 190.386L105.601 171.949L105.04 175.324L110.148 189.376L112.004 190.386Z" fill="url(#paint7_radial_35_6428)"/>
<path fill-rule="evenodd" clip-rule="evenodd" d="M118.448 189.449L108.182 171.745L109.275 173.333L118.448 188.031V189.449Z" fill="url(#paint8_radial_35_6428)"/>
<path fill-rule="evenodd" clip-rule="evenodd" d="M97.0156 188.031L96.639 189.847L90.5711 190.386L88.7199 189.376L88.5546 175.324L89.115 171.949L92.8356 171.745L93.5476 173.333L97.0156 188.031Z" fill="url(#paint9_radial_35_6428)"/>
<path opacity="0.5" fill-rule="evenodd" clip-rule="evenodd" d="M90.571 190.386L89.115 171.949L88.5546 175.324L88.7199 189.376L90.571 190.386Z" fill="url(#paint10_radial_35_6428)"/>
<path fill-rule="evenodd" clip-rule="evenodd" d="M96.639 189.847L92.8357 171.745L93.5477 173.333L97.0157 188.031L96.639 189.847Z" fill="url(#paint11_radial_35_6428)"/>
<path fill-rule="evenodd" clip-rule="evenodd" d="M15.0233 186.948C15.0233 186.948 30.7282 196.47 79.3126 196.47C128.715 196.47 142.954 186.433 142.954 186.433L131.944 177.426L26.0016 177.805L15.0233 186.948Z" fill="url(#paint12_radial_35_6428)"/>
<path fill-rule="evenodd" clip-rule="evenodd" d="M26.0016 177.805C26.0016 177.805 46.6857 183.67 77.6866 183.67C108.687 183.67 131.944 177.426 131.944 177.426C131.944 177.426 111.549 174.765 76.5796 174.765C41.4722 174.765 26.0016 177.805 26.0016 177.805Z" fill="url(#paint13_radial_35_6428)"/>
<path fill-rule="evenodd" clip-rule="evenodd" d="M33.8655 177.824C33.8655 177.824 51.5133 182.024 77.907 182.024C104.301 182.024 124.075 177.504 124.075 177.504C124.075 177.504 106.712 175.236 76.9332 175.236C47.044 175.236 33.8655 177.824 33.8655 177.824Z" fill="url(#paint14_radial_35_6428)"/>
<path d="M79.3126 192.746C55.7209 192.746 41.5273 190.08 33.7736 187.846C25.3585 185.419 22.483 182.952 22.4554 182.928L22.6024 182.743C22.7127 182.84 34.2605 192.508 79.3126 192.508C102.858 192.508 117.461 189.662 125.568 187.273C134.346 184.685 137.603 182.068 137.635 182.044L137.777 182.233C137.745 182.258 134.47 184.899 125.66 187.497C117.534 189.891 102.904 192.746 79.3126 192.746Z" fill="white"/>
<path d="M79.3125 189.245C55.7208 189.245 42.3448 186.938 35.2802 185.001C27.6 182.899 25.5422 180.816 25.4595 180.728L25.6202 180.553C25.7029 180.636 34.288 188.997 79.3125 188.997C124.397 188.997 134.957 180.029 135.058 179.937L135.205 180.121C135.099 180.213 132.55 182.437 124.369 184.69C116.836 186.769 102.904 189.245 79.3125 189.245Z" fill="white"/>
<path fill-rule="evenodd" clip-rule="evenodd" d="M14.0311 187.939L31.1967 173.508L33.4153 173.445L33.8655 175.97L22.2304 189.857L16.6264 189.089L14.0311 187.939Z" fill="url(#paint15_radial_35_6428)"/>
<path opacity="0.5" fill-rule="evenodd" clip-rule="evenodd" d="M22.2303 189.857L16.6263 189.089L33.4152 173.445L33.8654 175.97L22.2303 189.857Z" fill="url(#paint16_linear_35_6428)"/>
<path fill-rule="evenodd" clip-rule="evenodd" d="M32.4874 192.775V194.484L40.2732 195.62L42.5148 194.401L48.2244 177.426L47.5446 173.352L44.4303 173.105L43.112 175.023L32.4874 192.775Z" fill="url(#paint17_radial_35_6428)"/>
<path opacity="0.5" fill-rule="evenodd" clip-rule="evenodd" d="M40.2732 195.62L47.5446 173.352L48.2244 177.426L42.5148 194.402L40.2732 195.62Z" fill="url(#paint18_linear_35_6428)"/>
<path fill-rule="evenodd" clip-rule="evenodd" d="M32.4874 194.484L44.4303 173.105L43.112 175.023L32.4874 192.775V194.484Z" fill="url(#paint19_linear_35_6428)"/>
<path fill-rule="evenodd" clip-rule="evenodd" d="M59.3956 195.358L59.855 197.558L67.1814 198.203L69.4184 196.985L69.616 180.014L68.9407 175.936L64.4484 175.693L63.5894 177.611L59.3956 195.358Z" fill="url(#paint20_radial_35_6428)"/>
<path opacity="0.5" fill-rule="evenodd" clip-rule="evenodd" d="M67.1814 198.203L68.9407 175.936L69.6159 180.014L69.4184 196.985L67.1814 198.203Z" fill="url(#paint21_linear_35_6428)"/>
<path fill-rule="evenodd" clip-rule="evenodd" d="M59.855 197.558L64.4484 175.693L63.5894 177.611L59.3956 195.358L59.855 197.558Z" fill="url(#paint22_linear_35_6428)"/>
<path fill-rule="evenodd" clip-rule="evenodd" d="M145.94 187.939L128.774 173.508L126.551 173.445L126.101 175.97L137.139 189.143L143.345 189.089L145.94 187.939Z" fill="url(#paint23_radial_35_6428)"/>
<path opacity="0.5" fill-rule="evenodd" clip-rule="evenodd" d="M137.139 189.143L143.345 189.089L126.551 173.445L126.101 175.97L137.139 189.143Z" fill="url(#paint24_linear_35_6428)"/>
<path fill-rule="evenodd" clip-rule="evenodd" d="M127.938 192.775V194.484L120.153 195.62L117.723 193.877L111.747 177.426L112.422 173.352L115.536 173.105L116.859 175.023L127.938 192.775Z" fill="url(#paint25_radial_35_6428)"/>
<path opacity="0.5" fill-rule="evenodd" clip-rule="evenodd" d="M120.153 195.62L112.422 173.352L111.747 177.426L117.916 194.402L120.153 195.62Z" fill="url(#paint26_linear_35_6428)"/>
<path fill-rule="evenodd" clip-rule="evenodd" d="M127.938 194.484L115.536 173.105L116.859 175.023L127.938 192.775V194.484Z" fill="url(#paint27_linear_35_6428)"/>
<path fill-rule="evenodd" clip-rule="evenodd" d="M100.571 195.358L100.112 197.558L92.7851 198.203L90.5481 196.985L90.3506 180.014L91.0258 175.936L95.5182 175.693L96.3817 177.611L100.571 195.358Z" fill="url(#paint28_radial_35_6428)"/>
<path opacity="0.5" fill-rule="evenodd" clip-rule="evenodd" d="M92.7851 198.203L91.0258 175.936L90.3506 180.014L90.5481 196.985L92.7851 198.203Z" fill="url(#paint29_linear_35_6428)"/>
<path fill-rule="evenodd" clip-rule="evenodd" d="M100.112 197.558L95.5182 175.693L96.3818 177.611L100.571 195.358L100.112 197.558Z" fill="url(#paint30_linear_35_6428)"/>
<path opacity="0.5" fill-rule="evenodd" clip-rule="evenodd" d="M33.4152 173.445L33.8654 175.97L31.3023 179.029L32.5838 179.339L26.0015 190.964L22.2303 189.857L16.6263 189.089L33.4152 173.445Z" fill="url(#paint31_linear_35_6428)"/>
<path opacity="0.5" fill-rule="evenodd" clip-rule="evenodd" d="M40.2732 195.62L42.5148 194.402L44.5542 194.484L48.624 182.025L47.8569 180.17L47.2138 180.034L48.2244 177.426L47.5446 173.352L40.2732 195.62Z" fill="url(#paint32_linear_35_6428)"/>
<path opacity="0.5" fill-rule="evenodd" clip-rule="evenodd" d="M67.1814 198.203L68.9407 175.936L69.6159 180.014L69.5746 183.535L70.3968 183.559L71.5865 196.47L69.6159 196.339L69.4184 196.985L67.1814 198.203Z" fill="url(#paint33_linear_35_6428)"/>
<path opacity="0.5" fill-rule="evenodd" clip-rule="evenodd" d="M91.0258 175.936L90.3505 180.014L90.4929 183.321L89.5605 183.369L88.4489 196.349L90.3505 196.295L90.548 196.985L92.785 198.203L91.0258 175.936Z" fill="url(#paint34_linear_35_6428)"/>
<path opacity="0.5" fill-rule="evenodd" clip-rule="evenodd" d="M112.422 173.352L111.747 177.426L112.422 179.548L111.747 181.257L115.536 194.202L120.153 195.62L112.422 173.352Z" fill="url(#paint35_linear_35_6428)"/>
<path opacity="0.5" fill-rule="evenodd" clip-rule="evenodd" d="M126.101 175.97L128.09 178.344L127.098 178.63L132.954 190.536L137.139 189.143L143.345 189.089L126.551 173.445L126.101 175.97Z" fill="url(#paint36_linear_35_6428)"/>
<path fill-rule="evenodd" clip-rule="evenodd" d="M33.8655 194.688L39.2949 185.093L41.2517 185.462L37.5586 195.222L33.8655 194.688Z" fill="url(#paint37_linear_35_6428)"/>
<path fill-rule="evenodd" clip-rule="evenodd" d="M14.0311 187.939L21.5092 181.651L22.2395 182.025L15.6802 188.672L14.0311 187.939Z" fill="url(#paint38_linear_35_6428)"/>
<path fill-rule="evenodd" clip-rule="evenodd" d="M61.674 197.558L63.4057 188.73H66.0882L65.1603 198.029L61.674 197.558Z" fill="url(#paint39_linear_35_6428)"/>
<path fill-rule="evenodd" clip-rule="evenodd" d="M94.9255 198.029L94.0712 189.143L96.8456 188.856L98.6049 197.64L94.9255 198.029Z" fill="url(#paint40_linear_35_6428)"/>
<path fill-rule="evenodd" clip-rule="evenodd" d="M126.441 194.644L121.737 186.628L119.505 187.341L122.468 195.28L126.441 194.644Z" fill="url(#paint41_linear_35_6428)"/>
<path fill-rule="evenodd" clip-rule="evenodd" d="M144.429 188.609L137.704 182.612L139.036 182.136L145.94 187.939L144.429 188.609Z" fill="url(#paint42_linear_35_6428)"/>
<path opacity="0.5" fill-rule="evenodd" clip-rule="evenodd" d="M145.94 187.38L139.036 182.136L128.517 174.051L126.551 173.449L126.101 175.974L128.09 178.349L127.093 178.635L120.033 180.121L116.854 175.027L115.532 173.109L112.417 173.352L111.742 177.431L112.417 179.553L113.042 181.17L97.6081 182.84L96.3725 177.616L95.5089 175.698L91.0166 175.94L90.3414 180.019L90.4838 183.326C82.5969 183.836 77.6728 183.675 69.57 183.539L69.6113 180.019L68.9361 175.94L64.4438 175.698L63.5802 177.616L62.2619 183.19C62.2619 183.19 52.7765 182.515 47.9994 181.728L47.8478 180.174L47.3287 180.068L48.2153 177.436L47.54 173.357L44.4257 173.114L43.1028 175.032L39.7864 180.573L32.5747 179.354L31.3023 179.028L33.8655 175.969L33.4153 173.445L31.1967 173.508L14.0311 187.939L8 189.774L37.0533 197.47C37.0533 197.47 73.0564 202.651 119.009 198.198L153 188.609L145.94 187.38Z" fill="url(#paint43_linear_35_6428)"/>
</g>
<rect opacity="0.48" x="123.146" y="177.285" width="88.1373" height="177.285" transform="rotate(-180 123.146 177.285)" fill="url(#paint44_linear_35_6428)"/>
<defs>
<filter id="filter0_d_35_6428" x="0" y="167.745" width="161" height="44.2549" filterUnits="userSpaceOnUse" color-interpolation-filters="sRGB">
<feFlood flood-opacity="0" result="BackgroundImageFix"/>
<feColorMatrix in="SourceAlpha" type="matrix" values="0 0 0 0 0 0 0 0 0 0 0 0 0 0 0 0 0 0 127 0" result="hardAlpha"/>
<feOffset dy="4"/>
<feGaussianBlur stdDeviation="4"/>
<feComposite in2="hardAlpha" operator="out"/>
<feColorMatrix type="matrix" values="0 0 0 0 0 0 0 0 0 0 0 0 0 0 0 0 0 0 0.4 0"/>
<feBlend mode="normal" in2="BackgroundImageFix" result="effect1_dropShadow_35_6428"/>
<feBlend mode="normal" in="SourceGraphic" in2="effect1_dropShadow_35_6428" result="shape"/>
</filter>
<radialGradient id="paint0_radial_35_6428" cx="0" cy="0" r="1" gradientUnits="userSpaceOnUse" gradientTransform="translate(47.2134 181.065) scale(7.75086 8.19332)">
<stop stop-color="#837AB1"/>
<stop offset="1" stop-color="#65531D"/>
</radialGradient>
<radialGradient id="paint1_radial_35_6428" cx="0" cy="0" r="1" gradientUnits="userSpaceOnUse" gradientTransform="translate(50.4368 181.166) scale(6.59057 6.96679)">
<stop stop-color="#4D4963"/>
<stop offset="1" stop-color="#A48B41"/>
</radialGradient>
<radialGradient id="paint2_radial_35_6428" cx="0" cy="0" r="1" gradientUnits="userSpaceOnUse" gradientTransform="translate(45.6443 180.596) scale(6.87559 7.26808)">
<stop stop-color="#413482"/>
<stop offset="1" stop-color="#1F012E"/>
</radialGradient>
<radialGradient id="paint3_radial_35_6428" cx="0" cy="0" r="1" gradientUnits="userSpaceOnUse" gradientTransform="translate(67.6359 181.166) scale(6.915 7.30975)">
<stop stop-color="white"/>
<stop offset="1" stop-color="#604E1B"/>
</radialGradient>
<radialGradient id="paint4_radial_35_6428" cx="0" cy="0" r="1" gradientUnits="userSpaceOnUse" gradientTransform="translate(70.8593 181.267) scale(6.20745 6.56178)">
<stop stop-color="#413482"/>
<stop offset="1" stop-color="#1F012E"/>
</radialGradient>
<radialGradient id="paint5_radial_35_6428" cx="0" cy="0" r="1" gradientUnits="userSpaceOnUse" gradientTransform="translate(65.4963 180.898) scale(6.23286 6.58869)">
<stop stop-color="#413482"/>
<stop offset="1" stop-color="#1F012E"/>
</radialGradient>
<radialGradient id="paint6_radial_35_6428" cx="0" cy="0" r="1" gradientUnits="userSpaceOnUse" gradientTransform="translate(111.746 181.065) rotate(180) scale(7.83152 8.27859)">
<stop offset="0.0323625" stop-color="#423A46"/>
<stop offset="0.340033" stop-color="#604F1C"/>
</radialGradient>
<radialGradient id="paint7_radial_35_6428" cx="0" cy="0" r="1" gradientUnits="userSpaceOnUse" gradientTransform="translate(108.522 181.166) rotate(180) scale(6.63925 7.01826)">
<stop stop-color="#F8CE52"/>
<stop offset="1" stop-color="#F8CE52"/>
</radialGradient>
<radialGradient id="paint8_radial_35_6428" cx="0" cy="0" r="1" gradientUnits="userSpaceOnUse" gradientTransform="translate(113.315 180.596) rotate(180) scale(6.94491 7.34136)">
<stop offset="0.428127" stop-color="#AF9E69"/>
<stop offset="0.538394" stop-color="#604F1C"/>
</radialGradient>
<radialGradient id="paint9_radial_35_6428" cx="0" cy="0" r="1" gradientUnits="userSpaceOnUse" gradientTransform="translate(91.3724 173.511) rotate(67.6795) scale(9.5448 10.5511)">
<stop stop-color="#887439"/>
<stop offset="1" stop-color="#1F012E"/>
</radialGradient>
<radialGradient id="paint10_radial_35_6428" cx="0" cy="0" r="1" gradientUnits="userSpaceOnUse" gradientTransform="translate(89.5627 181.166) rotate(180) scale(6.20736 6.56179)">
<stop stop-color="#63552C"/>
<stop offset="1" stop-color="#1F012E"/>
</radialGradient>
<radialGradient id="paint11_radial_35_6428" cx="0" cy="0" r="1" gradientUnits="userSpaceOnUse" gradientTransform="translate(94.9257 180.797) rotate(180) scale(6.23287 6.58869)">
<stop stop-color="#413482"/>
<stop offset="1" stop-color="#1F012E"/>
</radialGradient>
<radialGradient id="paint12_radial_35_6428" cx="0" cy="0" r="1" gradientUnits="userSpaceOnUse" gradientTransform="translate(78.9888 186.949) scale(45.6771 48.2846)">
<stop stop-color="#754B4B"/>
<stop offset="1" stop-color="#9E8581"/>
</radialGradient>
<radialGradient id="paint13_radial_35_6428" cx="0" cy="0" r="1" gradientUnits="userSpaceOnUse" gradientTransform="translate(78.9727 179.218) scale(37.5754 39.7204)">
<stop stop-color="#858597"/>
<stop offset="1" stop-color="#55575A"/>
</radialGradient>
<radialGradient id="paint14_radial_35_6428" cx="0" cy="0" r="1" gradientUnits="userSpaceOnUse" gradientTransform="translate(78.9727 178.631) scale(31.9751 33.8005)">
<stop stop-color="white"/>
<stop offset="1" stop-color="#EFFFFF"/>
</radialGradient>
<radialGradient id="paint15_radial_35_6428" cx="0" cy="0" r="1" gradientUnits="userSpaceOnUse" gradientTransform="translate(23.9487 181.652) scale(8.90638 9.4148)">
<stop stop-color="#DABA5D"/>
<stop offset="1" stop-color="#705300"/>
</radialGradient>
<linearGradient id="paint16_linear_35_6428" x1="16.625" y1="181.652" x2="33.8669" y2="181.652" gradientUnits="userSpaceOnUse">
<stop/>
<stop offset="1"/>
</linearGradient>
<radialGradient id="paint17_radial_35_6428" cx="0" cy="0" r="1" gradientUnits="userSpaceOnUse" gradientTransform="translate(40.3558 184.362) scale(9.36154 9.89594)">
<stop stop-color="white"/>
<stop offset="1" stop-color="#E3B93C"/>
</radialGradient>
<linearGradient id="paint18_linear_35_6428" x1="40.2754" y1="184.485" x2="48.2227" y2="184.485" gradientUnits="userSpaceOnUse">
<stop/>
<stop offset="1" stop-color="#E3B93C"/>
</linearGradient>
<linearGradient id="paint19_linear_35_6428" x1="32.4889" y1="183.796" x2="44.4323" y2="183.796" gradientUnits="userSpaceOnUse">
<stop/>
<stop offset="0.0867" stop-color="#01040A"/>
<stop offset="0.2335" stop-color="#040F25"/>
<stop offset="0.4227" stop-color="#082150"/>
<stop offset="0.6469" stop-color="#0E3B8C"/>
<stop offset="0.8978" stop-color="#165AD8"/>
<stop offset="1" stop-color="#1968F9"/>
</linearGradient>
<radialGradient id="paint20_radial_35_6428" cx="0" cy="0" r="1" gradientUnits="userSpaceOnUse" gradientTransform="translate(64.5068 186.949) scale(8.35191 8.82868)">
<stop stop-color="white"/>
<stop offset="1" stop-color="#F8CE52"/>
</radialGradient>
<linearGradient id="paint21_linear_35_6428" x1="67.1824" y1="187.071" x2="69.6177" y2="187.071" gradientUnits="userSpaceOnUse">
<stop/>
<stop offset="1" stop-color="#E3B93C"/>
</linearGradient>
<linearGradient id="paint22_linear_35_6428" x1="59.396" y1="186.625" x2="64.4493" y2="186.625" gradientUnits="userSpaceOnUse">
<stop/>
<stop offset="0.0867" stop-color="#01040A"/>
<stop offset="0.2335" stop-color="#040F25"/>
<stop offset="0.4227" stop-color="#082150"/>
<stop offset="0.6469" stop-color="#0E3B8C"/>
<stop offset="0.8978" stop-color="#165AD8"/>
<stop offset="1" stop-color="#1968F9"/>
</linearGradient>
<radialGradient id="paint23_radial_35_6428" cx="0" cy="0" r="1" gradientUnits="userSpaceOnUse" gradientTransform="translate(136.02 181.294) rotate(180) scale(8.7609 9.26103)">
<stop stop-color="#F8CE52"/>
<stop offset="1" stop-color="#403432"/>
</radialGradient>
<linearGradient id="paint24_linear_35_6428" x1="143.343" y1="181.294" x2="126.102" y2="181.294" gradientUnits="userSpaceOnUse">
<stop/>
<stop offset="1" stop-color="#E3B93C"/>
</linearGradient>
<radialGradient id="paint25_radial_35_6428" cx="0" cy="0" r="1" gradientUnits="userSpaceOnUse" gradientTransform="translate(119.842 184.362) rotate(180) scale(9.45895 9.99893)">
<stop stop-color="white"/>
<stop offset="1" stop-color="#E3B93C"/>
</radialGradient>
<linearGradient id="paint26_linear_35_6428" x1="120.152" y1="184.485" x2="111.746" y2="184.485" gradientUnits="userSpaceOnUse">
<stop stop-color="#4B4329"/>
<stop offset="1" stop-color="#E3B93C"/>
</linearGradient>
<linearGradient id="paint27_linear_35_6428" x1="127.939" y1="183.796" x2="115.536" y2="183.796" gradientUnits="userSpaceOnUse">
<stop/>
<stop offset="0.0867" stop-color="#01040A"/>
<stop offset="0.2335" stop-color="#040F25"/>
<stop offset="0.4227" stop-color="#082150"/>
<stop offset="0.6469" stop-color="#0E3B8C"/>
<stop offset="0.8978" stop-color="#165AD8"/>
<stop offset="1" stop-color="#1968F9"/>
</linearGradient>
<radialGradient id="paint28_radial_35_6428" cx="0" cy="0" r="1" gradientUnits="userSpaceOnUse" gradientTransform="translate(95.4617 186.949) rotate(180) scale(8.35191 8.82868)">
<stop stop-color="white"/>
<stop offset="1" stop-color="#FBD565"/>
</radialGradient>
<linearGradient id="paint29_linear_35_6428" x1="92.7861" y1="187.071" x2="90.3509" y2="187.071" gradientUnits="userSpaceOnUse">
<stop stop-color="white"/>
<stop offset="1" stop-color="#231C09"/>
</linearGradient>
<linearGradient id="paint30_linear_35_6428" x1="100.573" y1="186.625" x2="95.5193" y2="186.625" gradientUnits="userSpaceOnUse">
<stop/>
<stop offset="0.0867" stop-color="#01040A"/>
<stop offset="0.2335" stop-color="#040F25"/>
<stop offset="0.4227" stop-color="#082150"/>
<stop offset="0.6469" stop-color="#0E3B8C"/>
<stop offset="0.8978" stop-color="#165AD8"/>
<stop offset="1" stop-color="#1968F9"/>
</linearGradient>
<linearGradient id="paint31_linear_35_6428" x1="16.625" y1="182.204" x2="33.8669" y2="182.204" gradientUnits="userSpaceOnUse">
<stop/>
<stop offset="1" stop-color="#E3B93C"/>
</linearGradient>
<linearGradient id="paint32_linear_35_6428" x1="40.2754" y1="184.485" x2="48.6235" y2="184.485" gradientUnits="userSpaceOnUse">
<stop stop-color="#F8CE52"/>
<stop offset="1" stop-color="#332601"/>
</linearGradient>
<linearGradient id="paint33_linear_35_6428" x1="67.1824" y1="187.071" x2="71.5857" y2="187.071" gradientUnits="userSpaceOnUse">
<stop stop-color="#7F4556"/>
<stop offset="1" stop-color="#612C73"/>
</linearGradient>
<linearGradient id="paint34_linear_35_6428" x1="88.4493" y1="187.071" x2="92.7861" y2="187.071" gradientUnits="userSpaceOnUse">
<stop stop-color="#7F4556"/>
<stop offset="1" stop-color="#612C73"/>
</linearGradient>
<linearGradient id="paint35_linear_35_6428" x1="111.746" y1="184.485" x2="120.152" y2="184.485" gradientUnits="userSpaceOnUse">
<stop stop-color="#7F4556"/>
<stop offset="1" stop-color="#612C73"/>
</linearGradient>
<linearGradient id="paint36_linear_35_6428" x1="126.102" y1="181.99" x2="143.343" y2="181.99" gradientUnits="userSpaceOnUse">
<stop stop-color="#7F4556"/>
<stop offset="1" stop-color="#612C73"/>
</linearGradient>
<linearGradient id="paint37_linear_35_6428" x1="37.5592" y1="195.223" x2="37.5592" y2="185.091" gradientUnits="userSpaceOnUse">
<stop/>
<stop offset="1" stop-color="#392B00"/>
</linearGradient>
<linearGradient id="paint38_linear_35_6428" x1="18.1352" y1="188.671" x2="18.1352" y2="181.652" gradientUnits="userSpaceOnUse">
<stop/>
<stop offset="1"/>
</linearGradient>
<linearGradient id="paint39_linear_35_6428" x1="63.8803" y1="198.027" x2="63.8803" y2="188.731" gradientUnits="userSpaceOnUse">
<stop/>
<stop offset="1" stop-color="#725A12"/>
</linearGradient>
<linearGradient id="paint40_linear_35_6428" x1="96.337" y1="198.026" x2="96.337" y2="188.854" gradientUnits="userSpaceOnUse">
<stop stop-color="#45402F"/>
<stop offset="1" stop-color="#1F012E"/>
</linearGradient>
<linearGradient id="paint41_linear_35_6428" x1="122.972" y1="195.282" x2="122.972" y2="186.625" gradientUnits="userSpaceOnUse">
<stop/>
<stop offset="1" stop-color="#4F472F"/>
</linearGradient>
<linearGradient id="paint42_linear_35_6428" x1="141.82" y1="188.607" x2="141.82" y2="182.136" gradientUnits="userSpaceOnUse">
<stop offset="0.0833333"/>
<stop offset="0.859375" stop-color="#61532A"/>
</linearGradient>
<linearGradient id="paint43_linear_35_6428" x1="80.5008" y1="200.002" x2="80.5008" y2="173.106" gradientUnits="userSpaceOnUse">
<stop stop-color="#5E5E5E"/>
<stop offset="1" stop-color="#F8CE52"/>
</linearGradient>
<linearGradient id="paint44_linear_35_6428" x1="167.215" y1="177.285" x2="167.215" y2="378.01" gradientUnits="userSpaceOnUse">
<stop stop-color="#F8CE52"/>
<stop offset="0.322378" stop-color="white"/>
<stop offset="0.734051" stop-color="white" stop-opacity="0"/>
</linearGradient>
<clipPath id="clip0_35_6428">
<rect width="145" height="28.2548" fill="white" transform="translate(8 171.745)"/>
</clipPath>
</defs>
</svg>
