<svg width="48" height="48" viewBox="0 0 48 48" fill="none" xmlns="http://www.w3.org/2000/svg">
<g filter="url(#filter0_bdii_84_17592)">
<circle cx="24" cy="20" r="16" fill="url(#paint0_linear_84_17592)" shape-rendering="crispEdges"/>
</g>
<path d="M22.2655 25.2727C21.8484 25.2727 21.9193 25.1117 21.7754 24.7058L20.549 20.5809L29.9901 14.8569" fill="#444444"/>
<path d="M22.2659 25.2727C22.5877 25.2727 22.7299 25.1222 22.9096 24.9437L24.6262 23.238L22.4849 21.9185" fill="black"/>
<path d="M22.4846 21.9192L27.6729 25.8365C28.265 26.1704 28.6922 25.9975 28.8398 25.2749L30.9517 15.1044C31.1679 14.2185 30.6212 13.8166 30.0548 14.0794L17.6536 18.9661C16.8071 19.3131 16.8122 19.7958 17.4993 20.0108L20.6818 21.0259L28.0494 16.2758C28.3972 16.0602 28.7165 16.176 28.4545 16.4137" fill="black"/>
<defs>
<filter id="filter0_bdii_84_17592" x="-12" y="-16" width="72" height="72" filterUnits="userSpaceOnUse" color-interpolation-filters="sRGB">
<feFlood flood-opacity="0" result="BackgroundImageFix"/>
<feGaussianBlur in="BackgroundImage" stdDeviation="10"/>
<feComposite in2="SourceAlpha" operator="in" result="effect1_backgroundBlur_84_17592"/>
<feColorMatrix in="SourceAlpha" type="matrix" values="0 0 0 0 0 0 0 0 0 0 0 0 0 0 0 0 0 0 127 0" result="hardAlpha"/>
<feOffset dy="4"/>
<feGaussianBlur stdDeviation="4"/>
<feComposite in2="hardAlpha" operator="out"/>
<feColorMatrix type="matrix" values="0 0 0 0 0 0 0 0 0 0 0 0 0 0 0 0 0 0 0.08 0"/>
<feBlend mode="normal" in2="effect1_backgroundBlur_84_17592" result="effect2_dropShadow_84_17592"/>
<feBlend mode="normal" in="SourceGraphic" in2="effect2_dropShadow_84_17592" result="shape"/>
<feColorMatrix in="SourceAlpha" type="matrix" values="0 0 0 0 0 0 0 0 0 0 0 0 0 0 0 0 0 0 127 0" result="hardAlpha"/>
<feOffset dx="5" dy="5"/>
<feGaussianBlur stdDeviation="2"/>
<feComposite in2="hardAlpha" operator="arithmetic" k2="-1" k3="1"/>
<feColorMatrix type="matrix" values="0 0 0 0 1 0 0 0 0 1 0 0 0 0 1 0 0 0 0.08 0"/>
<feBlend mode="normal" in2="shape" result="effect3_innerShadow_84_17592"/>
<feColorMatrix in="SourceAlpha" type="matrix" values="0 0 0 0 0 0 0 0 0 0 0 0 0 0 0 0 0 0 127 0" result="hardAlpha"/>
<feOffset dx="-5" dy="-5"/>
<feGaussianBlur stdDeviation="2"/>
<feComposite in2="hardAlpha" operator="arithmetic" k2="-1" k3="1"/>
<feColorMatrix type="matrix" values="0 0 0 0 1 0 0 0 0 1 0 0 0 0 1 0 0 0 0.04 0"/>
<feBlend mode="normal" in2="effect3_innerShadow_84_17592" result="effect4_innerShadow_84_17592"/>
</filter>
<linearGradient id="paint0_linear_84_17592" x1="24" y1="4" x2="24" y2="36" gradientUnits="userSpaceOnUse">
<stop stop-color="#F8CE52"/>
<stop offset="1" stop-color="white" stop-opacity="0.74"/>
</linearGradient>
</defs>
</svg>
