<svg width="24" height="24" viewBox="0 0 24 24" fill="none" xmlns="http://www.w3.org/2000/svg">
<path d="M9.66683 17.25L16.6668 12L9.66683 6.75004V17.25ZM12.0002 0.333374C5.56016 0.333374 0.333496 5.56004 0.333496 12C0.333496 18.44 5.56016 23.6667 12.0002 23.6667C18.4402 23.6667 23.6668 18.44 23.6668 12C23.6668 5.56004 18.4402 0.333374 12.0002 0.333374ZM12.0002 21.3334C6.85516 21.3334 2.66683 17.145 2.66683 12C2.66683 6.85504 6.85516 2.66671 12.0002 2.66671C17.1452 2.66671 21.3335 6.85504 21.3335 12C21.3335 17.145 17.1452 21.3334 12.0002 21.3334Z" fill="#FFC350"/>
</svg>
